<svg width="185" height="61" viewBox="0 0 185 61" fill="none" xmlns="http://www.w3.org/2000/svg">
<path d="M76.5744 19.9071C77.6835 18.7302 77.6834 16.822 76.5743 15.6451C75.4653 14.4682 73.6671 14.4682 72.558 15.6451C71.4489 16.822 71.4489 18.7302 72.558 19.9071C73.6671 21.084 75.4653 21.084 76.5744 19.9071Z" fill="#006B5B"/>
<path d="M64.5815 60.3905H59.2914C57.4514 60.3905 55.9615 58.7988 55.9615 56.8569V43.9747C55.9615 43.8579 55.8715 43.773 55.7715 43.773H50.2914C50.1814 43.773 50.1014 43.8685 50.1014 43.9747V56.8569C50.1014 58.8094 48.6015 60.3905 46.7715 60.3905H41.6815C39.8415 60.3905 38.3514 58.7988 38.3514 56.8569V43.9747C38.3514 43.8579 38.2614 43.773 38.1614 43.773H32.6815C32.5715 43.773 32.4915 43.8685 32.4915 43.9747V56.8569C32.4915 58.8094 31.0014 60.3905 29.1614 60.3905H24.0714C22.2314 60.3905 20.7415 58.7988 20.7415 56.8569V43.9747C20.7415 43.8579 20.6515 43.773 20.5515 43.773H15.0714C14.9614 43.773 14.8814 43.8685 14.8814 43.9747V56.8569C14.8814 58.8094 13.3915 60.3905 11.5515 60.3905H6.26144C4.52144 60.3905 3.09144 59.0004 2.94144 57.1646L0.0214545 21.7969C-0.198545 19.1228 1.29144 16.5867 3.66144 15.6316C13.2514 11.7479 21.7615 8.02327 29.6815 4.22439C30.7615 3.70443 31.8614 3.3967 33.0414 3.29058L65.1314 0.266329C66.3014 0.160215 67.4314 0.245127 68.5714 0.552857L94.4814 7.42902C97.2114 8.15059 99.0114 10.8353 98.7614 13.8065L97.2214 32.4295C97.2014 32.6311 97.1915 32.8327 97.1815 33.0343C97.1315 33.8832 97.0714 34.764 96.7514 35.6872C96.2914 36.9817 95.6014 37.905 94.5114 38.6584C93.5414 39.3269 92.5114 39.624 91.1914 39.624H88.2514C86.2914 39.624 84.3414 39.624 82.3814 39.6346C78.4714 39.6346 74.5614 39.6665 70.6514 39.6877C69.9414 39.6877 69.3615 40.2607 69.3015 41.0141L67.9714 57.1858C67.8214 59.0216 66.3914 60.4117 64.6514 60.4117L64.5815 60.3905ZM64.5815 57.3768C64.8515 57.3768 65.0515 57.1859 65.0815 56.8994L66.4114 40.7276C66.6014 38.4249 68.3914 36.674 70.5714 36.6528C74.4914 36.6316 78.4014 36.6104 82.3214 36.5998C84.2814 36.5998 91.1414 36.5891 91.1414 36.5891C92.0314 36.5891 92.5014 36.3981 92.9214 36.101C93.5114 35.6978 93.8014 35.3158 94.0414 34.6154C94.2214 34.1061 94.2615 33.5118 94.3015 32.8115C94.3115 32.5886 94.3314 32.3658 94.3514 32.143L95.8914 13.52C96.0114 12.0344 95.1115 10.6867 93.7415 10.3259L67.8315 3.44975C67.2215 3.29058 66.6214 3.2057 66.0114 3.2057C65.7814 3.2057 65.5515 3.21632 65.3315 3.23754L33.2415 6.26179C32.3815 6.34668 31.5915 6.5695 30.8015 6.9409C22.8315 10.761 14.2714 14.5174 4.62143 18.4224C3.44143 18.8999 2.69145 20.1733 2.80145 21.5104L5.72144 56.8781C5.74144 57.1646 5.94144 57.3556 6.22144 57.3556H11.5114C11.7814 57.3556 12.0114 57.1116 12.0114 56.8251V43.9428C12.0114 42.1707 13.3714 40.7276 15.0414 40.7276H20.5215C22.1915 40.7276 23.5515 42.1707 23.5515 43.9428V56.8251C23.5515 57.1116 23.7715 57.3556 24.0515 57.3556H29.1414C29.4114 57.3556 29.6414 57.1116 29.6414 56.8251V43.9428C29.6414 42.1707 31.0014 40.7276 32.6714 40.7276H38.1614C39.8314 40.7276 41.1914 42.1707 41.1914 43.9428V56.8251C41.1914 57.1116 41.4214 57.3556 41.6914 57.3556H46.7814C47.0514 57.3556 47.2814 57.1116 47.2814 56.8251V43.9428C47.2814 42.1707 48.6414 40.7276 50.3114 40.7276H55.7914C57.4614 40.7276 58.8214 42.1707 58.8214 43.9428V56.8251C58.8214 57.1116 59.0514 57.3556 59.3214 57.3556H64.6115L64.5815 57.3768Z" fill="#006B5B"/>
<path d="M118.521 22.338H116.181V17.2764H111.801V22.338H109.461V10.6019H111.801V15.1966H116.181V10.6019H118.521V22.338Z" fill="#006B5B"/>
<path d="M121.312 22.338V10.6019H123.652V22.338H121.312Z" fill="#006B5B"/>
<path d="M134.072 14.2628C134.072 15.5255 133.702 16.4912 132.952 17.1597C132.202 17.8282 131.152 18.1678 129.782 18.1678H128.772V22.338H126.432V10.6019H129.962C131.302 10.6019 132.322 10.9096 133.022 11.525C133.722 12.1405 134.072 13.0531 134.072 14.2628ZM128.782 16.1198H129.552C130.272 16.1198 130.812 15.9712 131.172 15.6635C131.532 15.3557 131.712 14.9207 131.712 14.3477C131.712 13.7747 131.562 13.329 131.262 13.0531C130.962 12.7772 130.492 12.6392 129.852 12.6392H128.782V16.1198Z" fill="#006B5B"/>
<path d="M143.802 14.2628C143.802 15.5255 143.432 16.4912 142.682 17.1597C141.932 17.8282 140.882 18.1678 139.512 18.1678H138.502V22.338H136.162V10.6019H139.692C141.032 10.6019 142.052 10.9096 142.752 11.525C143.452 12.1405 143.802 13.0531 143.802 14.2628ZM138.512 16.1198H139.282C140.002 16.1198 140.542 15.9712 140.902 15.6635C141.262 15.3557 141.442 14.9207 141.442 14.3477C141.442 13.7747 141.292 13.329 140.992 13.0531C140.692 12.7772 140.222 12.6392 139.582 12.6392H138.512V16.1198Z" fill="#006B5B"/>
<path d="M155.932 16.4487C155.932 18.3906 155.482 19.8868 154.572 20.9267C153.662 21.9666 152.362 22.4866 150.672 22.4866C148.982 22.4866 147.672 21.9666 146.772 20.9267C145.862 19.8868 145.412 18.38 145.412 16.4275C145.412 14.475 145.872 12.9788 146.782 11.9495C147.692 10.9202 148.992 10.4002 150.692 10.4002C152.392 10.4002 153.692 10.9202 154.592 11.9601C155.492 13 155.942 14.4962 155.942 16.4381L155.932 16.4487ZM147.862 16.4487C147.862 17.7645 148.092 18.7514 148.562 19.4093C149.032 20.0672 149.732 20.4068 150.662 20.4068C152.532 20.4068 153.472 19.0909 153.472 16.4487C153.472 13.8065 152.542 12.4801 150.682 12.4801C149.752 12.4801 149.042 12.809 148.572 13.4775C148.102 14.146 147.862 15.1329 147.862 16.4381V16.4487Z" fill="#006B5B"/>
<path d="M109.581 28.6837H112.701C114.171 28.6837 115.231 28.9171 115.881 29.384C116.531 29.8509 116.861 30.5831 116.861 31.5912C116.861 32.2915 116.681 32.8645 116.311 33.3102C115.941 33.7559 115.411 34.053 114.711 34.1909V34.2759C116.391 34.5836 117.231 35.5174 117.231 37.0879C117.231 38.1384 116.901 38.9555 116.231 39.5391C115.561 40.1227 114.631 40.4199 113.431 40.4199H109.571V28.6837H109.581ZM110.871 33.7135H112.991C113.901 33.7135 114.551 33.5649 114.951 33.2572C115.351 32.9494 115.551 32.4401 115.551 31.7291C115.551 31.0712 115.331 30.5937 114.881 30.3072C114.431 30.0207 113.731 29.8721 112.761 29.8721H110.871V33.7135ZM110.871 34.8701V39.2632H113.181C114.071 39.2632 114.741 39.0828 115.201 38.7114C115.661 38.34 115.881 37.767 115.881 36.9924C115.881 36.2602 115.651 35.7296 115.191 35.39C114.731 35.0505 114.031 34.8807 113.081 34.8807H110.881L110.871 34.8701Z" fill="#006B5B"/>
<path d="M119.622 40.4199V28.6837H120.912V40.4199H119.622Z" fill="#006B5B"/>
<path d="M131.931 40.4199H130.421L126.391 34.7321L125.231 35.8251V40.4199H123.941V28.6837H125.231V34.4987L130.241 28.6837H131.761L127.311 33.7771L131.921 40.4199H131.931Z" fill="#006B5B"/>
<path d="M139.612 40.4199H133.452V28.6837H139.612V29.8933H134.732V33.671H139.312V34.8701H134.732V39.1889H139.612V40.4092V40.4199Z" fill="#006B5B"/>
<path d="M149.492 40.4199H148.202V29.8933H144.702V28.6837H152.992V29.8933H149.492V40.4199Z" fill="#006B5B"/>
<path d="M155.941 35.5386V40.4199H154.651V28.6837H157.681C159.041 28.6837 160.041 28.9596 160.691 29.5114C161.341 30.0631 161.661 30.8908 161.661 31.9944C161.661 33.5437 160.921 34.5942 159.441 35.146L162.441 40.4199H160.921L158.241 35.5386H155.931H155.941ZM155.941 34.3714H157.701C158.611 34.3714 159.271 34.1803 159.701 33.7983C160.131 33.4163 160.341 32.8433 160.341 32.0793C160.341 31.3153 160.121 30.7423 159.691 30.4027C159.261 30.0631 158.571 29.8933 157.611 29.8933H155.941V34.382V34.3714Z" fill="#006B5B"/>
<path d="M171.181 40.4199L169.801 36.6846H165.371L164.011 40.4199H162.711L167.081 28.6412H168.161L172.511 40.4199H171.181ZM169.401 35.4643L168.111 31.8246C167.941 31.3683 167.771 30.7953 167.601 30.1268C167.491 30.6361 167.331 31.2092 167.121 31.8246L165.821 35.4643H169.401Z" fill="#006B5B"/>
<path d="M174.042 40.4199V28.6837H175.332V40.4199H174.042Z" fill="#006B5B"/>
<path d="M178.352 40.4199V28.6837H179.642V39.1783H184.522V40.4092H178.362L178.352 40.4199Z" fill="#006B5B"/>
<path d="M111.131 46.7655L111.241 46.9459C110.991 47.9964 110.541 49.2804 109.911 50.7872H108.251C108.601 49.2061 108.851 47.8584 109.011 46.7655H111.141H111.131Z" fill="#006B5B"/>
<path d="M119.771 58.5016H112.041V56.772L114.821 53.7902C115.641 52.8988 116.181 52.2728 116.431 51.9332C116.681 51.5936 116.861 51.2647 116.971 50.9782C117.081 50.6917 117.141 50.384 117.141 50.0656C117.141 49.5987 117.021 49.2485 116.771 49.0151C116.521 48.7816 116.201 48.6649 115.791 48.6649C115.361 48.6649 114.951 48.771 114.541 48.9726C114.131 49.1743 113.721 49.482 113.281 49.864L112.011 48.2617C112.551 47.7735 113.011 47.4233 113.361 47.2217C113.711 47.0201 114.111 46.861 114.531 46.7549C114.951 46.6487 115.431 46.5851 115.951 46.5851C116.641 46.5851 117.251 46.723 117.781 46.9883C118.311 47.2536 118.721 47.6356 119.011 48.1131C119.301 48.5906 119.451 49.1424 119.451 49.7685C119.451 50.3097 119.361 50.819 119.181 51.2859C119.001 51.7528 118.721 52.2409 118.351 52.7397C117.981 53.2384 117.311 53.9494 116.361 54.8619L114.941 56.2839V56.4006H119.761V58.4911L119.771 58.5016Z" fill="#006B5B"/>
<path d="M128.861 56.061H127.531V58.4911H125.251V56.061H120.531V54.3314L125.381 46.7549H127.541V54.1298H128.871V56.061H128.861ZM125.241 54.1298V52.1348C125.241 51.8059 125.251 51.3178 125.281 50.6917C125.311 50.0656 125.331 49.6942 125.341 49.5881H125.281C125.091 50.0232 124.871 50.4582 124.611 50.8721L122.581 54.1191H125.241V54.1298Z" fill="#006B5B"/>
</svg>
