<svg width="469" height="492" viewBox="0 0 469 492" fill="none" xmlns="http://www.w3.org/2000/svg">
<rect width="469" height="492" fill="white"/>
<path d="M305.057 366.581L297.612 359.327M297.612 359.327L292.49 353.264L288.253 350.237L279.173 353.869L281.594 359.327L279.173 366.581L266.462 369.479L271.304 375.055L279.173 381.661L285.832 384.74L294.228 381.661L309.795 395.198L302.78 406.704H294.228L277.308 395.198L268.509 397.228L254.961 413.472L250.724 399.935H242.855L228.577 397.228L221.133 413.472L219.779 409.411L211.657 407.38L208.95 401.966L200.828 406.704L193.383 403.319L185.938 406.704L179.17 403.319L177.14 402.643L170.372 397.228L166.987 398.582L160.219 399.935L158.189 396.551L154.128 400.612H145.329L137.885 403.996V387.076L141.945 381.661L137.208 369.479L137.885 364.741L135.854 359.327L130.44 362.034L129.763 355.943L121.641 347.144L116.227 347.821V341.729L118.257 336.992L106.074 328.87L97.2758 330.9L96.599 325.486L81.7091 309.919L84.4163 305.182L80.3555 302.474L85.0932 288.938L81.7091 282.17L84.4163 280.14L81.7091 277.432L95.9222 266.603L94.5685 263.896L85.0932 264.573L100.66 257.128L89.154 255.097L89.8308 249.006L94.5685 251.037L104.721 249.006L116.227 261.189L119.611 259.835L117.58 254.421L128.409 242.915L123.671 240.884L131.116 235.47L135.177 234.116L141.269 233.439L133.147 219.903L144.653 221.257L150.744 211.781L158.866 208.397L163.603 207.044L165.634 203.66L171.048 199.599L173.079 196.215L178.493 203.66V209.074L182.554 211.781V217.196V221.934L189.322 216.519V213.135L185.261 206.367L189.322 200.952L193.383 204.337H196.767L199.474 208.397L202.182 211.781L200.151 217.873L202.859 219.226V221.934H209.627L215.718 219.903L225.87 216.519L236.699 205.69H245.498L252.266 209.074L265.802 207.044L267.833 204.337L267.156 197.568L279.338 196.215L277.985 192.154L281.369 190.123L280.015 187.416L268.509 188.77L267.833 185.386L277.985 182.002L275.954 177.941L281.369 174.557L286.783 169.819L281.369 168.465V163.051L288.137 158.99L287.46 152.899L290.844 153.576L301.673 147.484L311.825 150.192L319.947 135.978H313.856L314.533 131.241L312.502 129.887L319.947 126.503V123.119L326.715 119.058H328.746L335.514 108.229L337.544 102.815L343.636 93.3393V89.9552L348.373 86.5711L347.02 80.4798L351.081 77.0958L353.111 60.8523L355.818 55.4378H353.111L348.373 62.2059L346.343 65.5899H345.666L342.959 64.2363L347.696 52.0537H342.959L337.544 55.4378H333.483L342.959 45.2856L337.544 27.0116L334.837 24.9812L337.544 12.7986L343.636 15.5058L349.727 14.829L348.373 8.06088L358.525 6.03044L366.647 4L367.324 8.06088L380.86 6.70725L382.891 15.5058L394.397 23.6276L400.488 24.9812L397.104 33.7798L398.457 39.1943L389.659 52.0537L386.275 57.4682L391.689 62.2059L393.043 69.6508V74.3885L382.891 75.7421L379.507 78.4494L382.891 80.4798L378.83 85.2175L366.647 92.6625L363.94 105.522L358.525 114.997L361.91 119.058L357.172 123.119L353.788 133.271L346.343 149.515H340.252L339.575 167.112L344.989 178.618L343.636 184.032L348.373 188.77L344.989 199.599L340.928 203.66L336.867 205.013L338.898 217.196H334.837L330.099 221.934L327.392 236.824L324.008 228.025L315.209 232.086L317.917 247.653L311.149 249.683L311.825 255.097L317.24 259.835L319.947 262.542L321.301 267.28L324.685 271.341L332.13 280.14L326.038 281.493H319.27L314.533 288.261L309.795 294.353L308.441 308.566L313.179 315.334L317.24 322.102L316.563 328.193L325.362 331.577L319.947 336.992L309.795 341.729L302.78 340.552L299.643 344.184L305.057 350.237L301.673 353.869L297.612 359.327Z" stroke="#2370D0" stroke-width="2" stroke-linecap="round"/>
<circle cx="84.4449" cy="292.999" r="7.44494" fill="#1E1E1E"/>
<path d="M169.268 290.281C169.793 290.281 170.231 290.422 170.584 290.704C170.936 290.982 171.201 291.367 171.377 291.861C171.553 292.354 171.641 292.921 171.641 293.559V294.412H168.151C168.16 295.188 168.288 295.767 168.535 296.15C168.786 296.529 169.167 296.719 169.678 296.719C169.965 296.719 170.24 296.679 170.504 296.6C170.769 296.516 171.049 296.382 171.344 296.197V297.386C171.071 297.549 170.782 297.671 170.478 297.75C170.174 297.829 169.848 297.869 169.5 297.869C168.856 297.869 168.334 297.712 167.933 297.4C167.532 297.082 167.239 296.642 167.054 296.078C166.874 295.514 166.783 294.859 166.783 294.115C166.783 293.291 166.876 292.595 167.061 292.026C167.246 291.458 167.523 291.026 167.894 290.731C168.264 290.431 168.722 290.281 169.268 290.281ZM169.288 291.392C168.949 291.392 168.682 291.55 168.488 291.867C168.295 292.185 168.187 292.685 168.165 293.368H170.352C170.352 292.989 170.313 292.652 170.233 292.357C170.154 292.057 170.035 291.821 169.876 291.649C169.722 291.478 169.526 291.392 169.288 291.392Z" fill="black"/>
<path d="M163.584 290.268C164.184 290.268 164.64 290.482 164.953 290.909C165.27 291.336 165.428 291.971 165.428 292.813V297.737H164.04V293.17C164.04 292.619 163.977 292.205 163.849 291.927C163.721 291.645 163.501 291.504 163.188 291.504C162.765 291.504 162.461 291.7 162.276 292.092C162.095 292.484 162.005 293.134 162.005 294.042V297.737H160.617V290.407H161.72L161.866 291.405H161.958C162.064 291.167 162.196 290.964 162.355 290.797C162.514 290.625 162.696 290.495 162.904 290.407C163.111 290.314 163.338 290.268 163.584 290.268Z" fill="black"/>
<path d="M156.922 290.281C157.447 290.281 157.885 290.422 158.237 290.704C158.59 290.982 158.854 291.367 159.031 291.861C159.207 292.354 159.295 292.921 159.295 293.559V294.412H155.805C155.814 295.188 155.942 295.767 156.189 296.15C156.44 296.529 156.821 296.719 157.332 296.719C157.618 296.719 157.894 296.679 158.158 296.6C158.423 296.516 158.702 296.382 158.998 296.197V297.386C158.724 297.549 158.436 297.671 158.132 297.75C157.828 297.829 157.502 297.869 157.154 297.869C156.51 297.869 155.988 297.712 155.587 297.4C155.186 297.082 154.893 296.642 154.708 296.078C154.527 295.514 154.437 294.859 154.437 294.115C154.437 293.291 154.53 292.595 154.715 292.026C154.9 291.458 155.177 291.026 155.547 290.731C155.918 290.431 156.376 290.281 156.922 290.281ZM156.942 291.392C156.603 291.392 156.336 291.55 156.142 291.867C155.948 292.185 155.84 292.685 155.818 293.368H158.006C158.006 292.989 157.966 292.652 157.887 292.357C157.808 292.057 157.689 291.821 157.53 291.649C157.376 291.478 157.18 291.392 156.942 291.392Z" fill="black"/>
<path d="M150.094 297.869C149.389 297.869 148.854 297.541 148.488 296.884C148.122 296.223 147.939 295.287 147.939 294.075C147.939 292.868 148.122 291.931 148.488 291.266C148.858 290.601 149.378 290.268 150.048 290.268C150.277 290.268 150.493 290.312 150.696 290.4C150.898 290.484 151.081 290.607 151.244 290.77C151.412 290.933 151.555 291.134 151.674 291.372H151.727C151.718 291.125 151.709 290.911 151.7 290.731C151.691 290.546 151.687 290.383 151.687 290.242V287.452H153.068V297.737H151.958L151.766 296.838H151.687C151.555 297.063 151.412 297.252 151.257 297.406C151.103 297.56 150.931 297.675 150.742 297.75C150.552 297.829 150.336 297.869 150.094 297.869ZM150.464 296.699C150.87 296.699 151.174 296.507 151.376 296.124C151.583 295.736 151.687 295.148 151.687 294.359V293.903C151.687 293.075 151.588 292.467 151.39 292.079C151.196 291.687 150.885 291.491 150.458 291.491C150.079 291.491 149.799 291.711 149.618 292.152C149.438 292.588 149.347 293.227 149.347 294.068C149.347 294.941 149.44 295.597 149.625 296.038C149.81 296.479 150.09 296.699 150.464 296.699Z" fill="black"/>
<path d="M144.562 290.268C145.258 290.268 145.772 290.486 146.102 290.922C146.433 291.359 146.598 291.997 146.598 292.839V297.737H145.567L145.349 296.725H145.316C145.183 296.972 145.036 297.181 144.873 297.353C144.71 297.525 144.522 297.653 144.311 297.737C144.104 297.825 143.861 297.869 143.584 297.869C143.192 297.869 142.872 297.765 142.625 297.558C142.379 297.347 142.198 297.071 142.083 296.732C141.969 296.393 141.912 296.031 141.912 295.648C141.912 294.903 142.121 294.333 142.54 293.936C142.963 293.54 143.562 293.324 144.337 293.288L145.21 293.242V292.846C145.21 292.352 145.139 291.989 144.998 291.755C144.857 291.522 144.626 291.405 144.304 291.405C144.097 291.405 143.875 291.444 143.637 291.524C143.403 291.599 143.145 291.718 142.863 291.881L142.46 290.843C142.764 290.653 143.093 290.51 143.445 290.413C143.802 290.316 144.174 290.268 144.562 290.268ZM145.216 294.207L144.635 294.24C144.19 294.267 143.859 294.392 143.643 294.617C143.427 294.842 143.319 295.168 143.319 295.595C143.319 295.987 143.388 296.278 143.524 296.468C143.665 296.657 143.861 296.752 144.113 296.752C144.452 296.752 144.721 296.589 144.919 296.263C145.117 295.932 145.216 295.483 145.216 294.914V294.207Z" fill="black"/>
<path d="M140.649 290.407V297.737H139.268V290.407H140.649ZM139.968 287.585C140.237 287.585 140.433 287.662 140.557 287.816C140.68 287.97 140.742 288.188 140.742 288.47C140.742 288.743 140.676 288.957 140.543 289.111C140.416 289.261 140.224 289.336 139.968 289.336C139.717 289.336 139.521 289.261 139.38 289.111C139.244 288.957 139.175 288.743 139.175 288.47C139.175 288.179 139.241 287.959 139.374 287.809C139.506 287.659 139.704 287.585 139.968 287.585Z" fill="black"/>
<path d="M134.152 287.452V290.248C134.152 290.389 134.148 290.557 134.139 290.75C134.135 290.94 134.124 291.156 134.106 291.398H134.165C134.35 291.019 134.577 290.739 134.846 290.559C135.119 290.374 135.428 290.281 135.771 290.281C136.454 290.281 136.979 290.607 137.345 291.259C137.715 291.907 137.9 292.839 137.9 294.055C137.9 294.862 137.816 295.549 137.649 296.117C137.486 296.686 137.245 297.12 136.928 297.419C136.611 297.719 136.225 297.869 135.771 297.869C135.428 297.869 135.128 297.792 134.873 297.638C134.617 297.479 134.381 297.217 134.165 296.851H134.086L133.888 297.737H132.764V287.452H134.152ZM135.368 291.491C135.051 291.491 134.804 291.592 134.628 291.795C134.452 291.993 134.328 292.273 134.258 292.634C134.187 292.991 134.152 293.412 134.152 293.897V294.234C134.152 295.071 134.251 295.69 134.45 296.091C134.652 296.488 134.961 296.686 135.375 296.686C135.745 296.686 136.023 296.472 136.208 296.045C136.393 295.613 136.485 294.945 136.485 294.042C136.485 293.192 136.395 292.555 136.214 292.132C136.038 291.704 135.756 291.491 135.368 291.491Z" fill="black"/>
<path d="M127.662 287.452V290.248C127.662 290.389 127.658 290.557 127.649 290.75C127.644 290.94 127.633 291.156 127.616 291.398H127.675C127.86 291.019 128.087 290.739 128.356 290.559C128.629 290.374 128.938 290.281 129.281 290.281C129.964 290.281 130.489 290.607 130.854 291.259C131.224 291.907 131.41 292.839 131.41 294.055C131.41 294.862 131.326 295.549 131.158 296.117C130.995 296.686 130.755 297.12 130.438 297.419C130.121 297.719 129.735 297.869 129.281 297.869C128.938 297.869 128.638 297.792 128.382 297.638C128.127 297.479 127.891 297.217 127.675 296.851H127.596L127.398 297.737H126.274V287.452H127.662ZM128.878 291.491C128.561 291.491 128.314 291.592 128.138 291.795C127.962 291.993 127.838 292.273 127.768 292.634C127.697 292.991 127.662 293.412 127.662 293.897V294.234C127.662 295.071 127.761 295.69 127.959 296.091C128.162 296.488 128.47 296.686 128.885 296.686C129.255 296.686 129.532 296.472 129.717 296.045C129.903 295.613 129.995 294.945 129.995 294.042C129.995 293.192 129.905 292.555 129.724 292.132C129.548 291.704 129.266 291.491 128.878 291.491Z" fill="black"/>
<path d="M124.912 294.055C124.912 294.602 124.862 295.106 124.76 295.569C124.659 296.031 124.503 296.435 124.291 296.778C124.084 297.122 123.813 297.391 123.478 297.585C123.148 297.774 122.751 297.869 122.288 297.869C121.848 297.869 121.464 297.774 121.138 297.585C120.812 297.395 120.541 297.131 120.325 296.792C120.114 296.448 119.955 296.045 119.85 295.582C119.744 295.115 119.691 294.606 119.691 294.055C119.691 293.284 119.781 292.617 119.962 292.053C120.147 291.484 120.433 291.046 120.821 290.737C121.209 290.424 121.705 290.268 122.308 290.268C122.85 290.268 123.315 290.413 123.703 290.704C124.095 290.995 124.395 291.422 124.602 291.986C124.809 292.546 124.912 293.236 124.912 294.055ZM121.099 294.068C121.099 294.641 121.141 295.122 121.224 295.509C121.312 295.897 121.445 296.19 121.621 296.388C121.802 296.582 122.031 296.679 122.308 296.679C122.586 296.679 122.811 296.582 122.982 296.388C123.159 296.194 123.286 295.904 123.366 295.516C123.45 295.128 123.491 294.641 123.491 294.055C123.491 293.482 123.45 293.004 123.366 292.621C123.286 292.233 123.159 291.945 122.982 291.755C122.811 291.561 122.584 291.464 122.302 291.464C121.879 291.464 121.572 291.68 121.383 292.112C121.193 292.539 121.099 293.192 121.099 294.068Z" fill="black"/>
<path d="M115.355 297.869C114.65 297.869 114.115 297.541 113.749 296.884C113.383 296.223 113.2 295.287 113.2 294.075C113.2 292.868 113.383 291.931 113.749 291.266C114.119 290.601 114.639 290.268 115.309 290.268C115.538 290.268 115.754 290.312 115.956 290.4C116.159 290.484 116.342 290.607 116.505 290.77C116.672 290.933 116.816 291.134 116.935 291.372H116.987C116.979 291.125 116.97 290.911 116.961 290.731C116.952 290.546 116.948 290.383 116.948 290.242V287.452H118.329V297.737H117.219L117.027 296.838H116.948C116.816 297.063 116.672 297.252 116.518 297.406C116.364 297.56 116.192 297.675 116.003 297.75C115.813 297.829 115.597 297.869 115.355 297.869ZM115.725 296.699C116.13 296.699 116.434 296.507 116.637 296.124C116.844 295.736 116.948 295.148 116.948 294.359V293.903C116.948 293.075 116.849 292.467 116.65 292.079C116.456 291.687 116.146 291.491 115.718 291.491C115.339 291.491 115.06 291.711 114.879 292.152C114.698 292.588 114.608 293.227 114.608 294.068C114.608 294.941 114.701 295.597 114.886 296.038C115.071 296.479 115.35 296.699 115.725 296.699Z" fill="black"/>
<path d="M111.852 297.737H110.464V287.452H111.852V297.737Z" fill="black"/>
<path d="M106.795 290.268C107.492 290.268 108.005 290.486 108.335 290.922C108.666 291.359 108.831 291.997 108.831 292.839V297.737H107.8L107.582 296.725H107.549C107.417 296.972 107.269 297.181 107.106 297.353C106.943 297.525 106.756 297.653 106.544 297.737C106.337 297.825 106.095 297.869 105.817 297.869C105.425 297.869 105.106 297.765 104.859 297.558C104.612 297.347 104.431 297.071 104.317 296.732C104.202 296.393 104.145 296.031 104.145 295.648C104.145 294.903 104.354 294.333 104.773 293.936C105.196 293.54 105.795 293.324 106.571 293.288L107.443 293.242V292.846C107.443 292.352 107.373 291.989 107.232 291.755C107.091 291.522 106.859 291.405 106.538 291.405C106.331 291.405 106.108 291.444 105.87 291.524C105.637 291.599 105.379 291.718 105.097 291.881L104.694 290.843C104.998 290.653 105.326 290.51 105.678 290.413C106.035 290.316 106.408 290.268 106.795 290.268ZM107.45 294.207L106.868 294.24C106.423 294.267 106.093 294.392 105.877 294.617C105.661 294.842 105.553 295.168 105.553 295.595C105.553 295.987 105.621 296.278 105.758 296.468C105.899 296.657 106.095 296.752 106.346 296.752C106.685 296.752 106.954 296.589 107.152 296.263C107.351 295.932 107.45 295.483 107.45 294.914V294.207Z" fill="black"/>
<path d="M103.709 288.074L101.336 297.737H99.6572L97.3042 288.074H98.8244L100.153 294.135C100.197 294.328 100.241 294.544 100.285 294.782C100.329 295.02 100.369 295.258 100.404 295.496C100.439 295.73 100.47 295.943 100.497 296.137C100.523 295.943 100.554 295.73 100.589 295.496C100.629 295.263 100.671 295.027 100.715 294.789C100.763 294.551 100.809 294.331 100.854 294.128L102.195 288.074H103.709Z" fill="black"/>
<circle cx="353.151" cy="177.941" r="7.44494" fill="#1E1E1E"/>
<path d="M341.11 178.997C341.11 179.543 341.059 180.048 340.958 180.511C340.856 180.973 340.7 181.376 340.488 181.72C340.281 182.064 340.01 182.333 339.675 182.526C339.345 182.716 338.948 182.811 338.486 182.811C338.045 182.811 337.662 182.716 337.336 182.526C337.01 182.337 336.739 182.073 336.523 181.733C336.311 181.39 336.153 180.986 336.047 180.524C335.941 180.057 335.888 179.548 335.888 178.997C335.888 178.226 335.979 177.558 336.159 176.994C336.344 176.426 336.631 175.987 337.018 175.679C337.406 175.366 337.902 175.21 338.506 175.21C339.048 175.21 339.512 175.355 339.9 175.646C340.292 175.937 340.592 176.364 340.799 176.928C341.006 177.488 341.11 178.177 341.11 178.997ZM337.296 179.01C337.296 179.583 337.338 180.063 337.422 180.451C337.51 180.839 337.642 181.132 337.818 181.33C337.999 181.524 338.228 181.621 338.506 181.621C338.783 181.621 339.008 181.524 339.18 181.33C339.356 181.136 339.484 180.845 339.563 180.458C339.647 180.07 339.689 179.583 339.689 178.997C339.689 178.424 339.647 177.946 339.563 177.563C339.484 177.175 339.356 176.886 339.18 176.697C339.008 176.503 338.781 176.406 338.499 176.406C338.076 176.406 337.77 176.622 337.58 177.054C337.391 177.481 337.296 178.133 337.296 179.01Z" fill="black"/>
<path d="M334.408 181.588C334.522 181.588 334.641 181.575 334.765 181.548C334.893 181.517 335.018 181.473 335.142 181.416V182.54C334.979 182.623 334.798 182.69 334.6 182.738C334.406 182.786 334.196 182.811 333.972 182.811C333.602 182.811 333.3 182.734 333.066 182.579C332.833 182.421 332.661 182.185 332.551 181.872C332.445 181.559 332.392 181.165 332.392 180.689V176.505H331.691V175.752L332.485 175.388L332.828 173.742H333.78V175.349H335.056V176.505H333.78V180.597C333.78 180.931 333.824 181.18 333.912 181.343C334.005 181.506 334.17 181.588 334.408 181.588Z" fill="black"/>
<path d="M328.624 175.223C329.149 175.223 329.587 175.364 329.94 175.646C330.292 175.924 330.557 176.309 330.733 176.803C330.909 177.296 330.997 177.862 330.997 178.501V179.354H327.507C327.516 180.129 327.644 180.709 327.891 181.092C328.142 181.471 328.523 181.661 329.034 181.661C329.321 181.661 329.596 181.621 329.86 181.542C330.125 181.458 330.404 181.324 330.7 181.139V182.328C330.427 182.491 330.138 182.612 329.834 182.692C329.53 182.771 329.204 182.811 328.856 182.811C328.212 182.811 327.69 182.654 327.289 182.341C326.888 182.024 326.595 181.584 326.41 181.02C326.229 180.456 326.139 179.801 326.139 179.057C326.139 178.233 326.232 177.536 326.417 176.968C326.602 176.4 326.879 175.968 327.25 175.672C327.62 175.373 328.078 175.223 328.624 175.223ZM328.644 176.333C328.305 176.333 328.038 176.492 327.844 176.809C327.651 177.127 327.543 177.627 327.521 178.31H329.708C329.708 177.931 329.669 177.594 329.589 177.298C329.51 176.999 329.391 176.763 329.232 176.591C329.078 176.419 328.882 176.333 328.644 176.333Z" fill="black"/>
<path d="M322.94 175.21C323.54 175.21 323.996 175.423 324.308 175.851C324.626 176.278 324.784 176.913 324.784 177.754V182.679H323.396V178.111C323.396 177.561 323.332 177.146 323.205 176.869C323.077 176.587 322.857 176.446 322.544 176.446C322.121 176.446 321.817 176.642 321.632 177.034C321.451 177.426 321.361 178.076 321.361 178.984V182.679H319.973V175.349H321.076L321.222 176.347H321.314C321.42 176.109 321.552 175.906 321.711 175.739C321.87 175.567 322.052 175.437 322.26 175.349C322.467 175.256 322.694 175.21 322.94 175.21Z" fill="black"/>
<path d="M316.278 175.223C316.802 175.223 317.24 175.364 317.593 175.646C317.945 175.924 318.21 176.309 318.386 176.803C318.562 177.296 318.65 177.862 318.65 178.501V179.354H315.161C315.169 180.129 315.297 180.709 315.544 181.092C315.795 181.471 316.176 181.661 316.687 181.661C316.974 181.661 317.249 181.621 317.514 181.542C317.778 181.458 318.058 181.324 318.353 181.139V182.328C318.08 182.491 317.791 182.612 317.487 182.692C317.183 182.771 316.857 182.811 316.509 182.811C315.866 182.811 315.344 182.654 314.943 182.341C314.542 182.024 314.249 181.584 314.063 181.02C313.883 180.456 313.792 179.801 313.792 179.057C313.792 178.233 313.885 177.536 314.07 176.968C314.255 176.4 314.533 175.968 314.903 175.672C315.273 175.373 315.731 175.223 316.278 175.223ZM316.297 176.333C315.958 176.333 315.692 176.492 315.498 176.809C315.304 177.127 315.196 177.627 315.174 178.31H317.362C317.362 177.931 317.322 177.594 317.243 177.298C317.163 176.999 317.044 176.763 316.886 176.591C316.732 176.419 316.535 176.333 316.297 176.333Z" fill="black"/>
<path d="M313.244 173.016L310.871 182.679H309.192L306.839 173.016H308.36L309.688 179.076C309.732 179.27 309.776 179.486 309.82 179.724C309.864 179.962 309.904 180.2 309.939 180.438C309.974 180.672 310.005 180.885 310.032 181.079C310.058 180.885 310.089 180.672 310.124 180.438C310.164 180.204 310.206 179.969 310.25 179.731C310.298 179.493 310.345 179.272 310.389 179.07L311.73 173.016H313.244Z" fill="black"/>
<path d="M303.832 178.997C303.832 179.543 303.782 180.048 303.68 180.511C303.579 180.973 303.423 181.376 303.211 181.72C303.004 182.064 302.733 182.333 302.398 182.526C302.068 182.716 301.671 182.811 301.208 182.811C300.768 182.811 300.384 182.716 300.058 182.526C299.732 182.337 299.461 182.073 299.245 181.733C299.034 181.39 298.875 180.986 298.769 180.524C298.664 180.057 298.611 179.548 298.611 178.997C298.611 178.226 298.701 177.558 298.882 176.994C299.067 176.426 299.353 175.987 299.741 175.679C300.129 175.366 300.625 175.21 301.228 175.21C301.77 175.21 302.235 175.355 302.623 175.646C303.015 175.937 303.315 176.364 303.522 176.928C303.729 177.488 303.832 178.177 303.832 178.997ZM300.019 179.01C300.019 179.583 300.061 180.063 300.144 180.451C300.232 180.839 300.365 181.132 300.541 181.33C300.721 181.524 300.951 181.621 301.228 181.621C301.506 181.621 301.731 181.524 301.902 181.33C302.079 181.136 302.206 180.845 302.286 180.458C302.369 180.07 302.411 179.583 302.411 178.997C302.411 178.424 302.369 177.946 302.286 177.563C302.206 177.175 302.079 176.886 301.902 176.697C301.731 176.503 301.504 176.406 301.222 176.406C300.799 176.406 300.492 176.622 300.303 177.054C300.113 177.481 300.019 178.133 300.019 179.01Z" fill="black"/>
<path d="M297.242 175.349V182.678H295.861V175.349H297.242ZM296.562 172.526C296.83 172.526 297.027 172.603 297.15 172.758C297.273 172.912 297.335 173.13 297.335 173.412C297.335 173.685 297.269 173.899 297.137 174.053C297.009 174.203 296.817 174.278 296.562 174.278C296.311 174.278 296.114 174.203 295.973 174.053C295.837 173.899 295.769 173.685 295.769 173.412C295.769 173.121 295.835 172.901 295.967 172.751C296.099 172.601 296.297 172.526 296.562 172.526Z" fill="black"/>
<path d="M294.282 175.216C294.379 175.216 294.476 175.225 294.573 175.243C294.67 175.256 294.778 175.28 294.897 175.316L294.738 176.776C294.654 176.741 294.564 176.717 294.467 176.704C294.37 176.69 294.267 176.684 294.156 176.684C293.954 176.684 293.771 176.739 293.608 176.849C293.449 176.955 293.313 177.109 293.198 177.312C293.083 177.51 292.995 177.743 292.934 178.012C292.876 178.281 292.85 178.576 292.854 178.898V182.679H291.466V175.349H292.537L292.735 176.598H292.808C292.909 176.342 293.031 176.111 293.172 175.904C293.313 175.692 293.476 175.525 293.661 175.401C293.846 175.278 294.053 175.216 294.282 175.216Z" fill="black"/>
<path d="M290.097 178.997C290.097 179.543 290.047 180.048 289.945 180.511C289.844 180.973 289.688 181.376 289.476 181.72C289.269 182.064 288.998 182.333 288.663 182.526C288.333 182.716 287.936 182.811 287.474 182.811C287.033 182.811 286.65 182.716 286.323 182.526C285.997 182.337 285.726 182.073 285.51 181.733C285.299 181.39 285.14 180.986 285.035 180.524C284.929 180.057 284.876 179.548 284.876 178.997C284.876 178.226 284.966 177.558 285.147 176.994C285.332 176.426 285.618 175.987 286.006 175.679C286.394 175.366 286.89 175.21 287.493 175.21C288.035 175.21 288.5 175.355 288.888 175.646C289.28 175.937 289.58 176.364 289.787 176.928C289.994 177.488 290.097 178.177 290.097 178.997ZM286.284 179.01C286.284 179.583 286.326 180.063 286.409 180.451C286.498 180.839 286.63 181.132 286.806 181.33C286.987 181.524 287.216 181.621 287.493 181.621C287.771 181.621 287.996 181.524 288.168 181.33C288.344 181.136 288.472 180.845 288.551 180.458C288.635 180.07 288.676 179.583 288.676 178.997C288.676 178.424 288.635 177.946 288.551 177.563C288.472 177.175 288.344 176.886 288.168 176.697C287.996 176.503 287.769 176.406 287.487 176.406C287.064 176.406 286.757 176.622 286.568 177.054C286.379 177.481 286.284 178.133 286.284 179.01Z" fill="black"/>
<path d="M283.395 181.588C283.51 181.588 283.629 181.575 283.752 181.548C283.88 181.517 284.005 181.473 284.129 181.416V182.54C283.966 182.623 283.785 182.69 283.587 182.738C283.393 182.786 283.184 182.811 282.959 182.811C282.589 182.811 282.287 182.734 282.053 182.579C281.82 182.421 281.648 182.185 281.538 181.872C281.432 181.559 281.379 181.165 281.379 180.689V176.505H280.679V175.752L281.472 175.388L281.816 173.742H282.767V175.349H284.043V176.505H282.767V180.597C282.767 180.931 282.811 181.18 282.9 181.343C282.992 181.506 283.157 181.588 283.395 181.588Z" fill="black"/>
<path d="M279.535 181.588C279.65 181.588 279.769 181.575 279.892 181.548C280.02 181.517 280.146 181.473 280.269 181.416V182.54C280.106 182.623 279.925 182.69 279.727 182.738C279.533 182.786 279.324 182.811 279.099 182.811C278.729 182.811 278.427 182.734 278.194 182.579C277.96 182.421 277.788 182.185 277.678 181.872C277.572 181.559 277.519 181.165 277.519 180.689V176.505H276.819V175.752L277.612 175.388L277.956 173.742H278.907V175.349H280.183V176.505H278.907V180.597C278.907 180.931 278.952 181.18 279.04 181.343C279.132 181.506 279.297 181.588 279.535 181.588Z" fill="black"/>
<path d="M275.788 175.349V182.678H274.406V175.349H275.788ZM275.107 172.526C275.376 172.526 275.572 172.603 275.695 172.758C275.819 172.912 275.88 173.13 275.88 173.412C275.88 173.685 275.814 173.899 275.682 174.053C275.554 174.203 275.363 174.278 275.107 174.278C274.856 174.278 274.66 174.203 274.519 174.053C274.382 173.899 274.314 173.685 274.314 173.412C274.314 173.121 274.38 172.901 274.512 172.751C274.644 172.601 274.843 172.526 275.107 172.526Z" fill="black"/>
<path d="M273.561 173.016L271.188 182.679H269.509L267.156 173.016H268.676L270.005 179.076C270.049 179.27 270.093 179.486 270.137 179.724C270.181 179.962 270.221 180.2 270.256 180.438C270.291 180.672 270.322 180.885 270.349 181.079C270.375 180.885 270.406 180.672 270.441 180.438C270.481 180.204 270.523 179.969 270.567 179.731C270.615 179.493 270.661 179.272 270.706 179.07L272.047 173.016H273.561Z" fill="black"/>
<circle cx="355.819" cy="301.121" r="7.44494" fill="#1E1E1E"/>
<path d="M425 302.177C425 302.723 424.95 303.228 424.848 303.691C424.747 304.153 424.591 304.556 424.379 304.9C424.172 305.244 423.901 305.513 423.566 305.706C423.236 305.896 422.839 305.991 422.376 305.991C421.936 305.991 421.552 305.896 421.226 305.706C420.9 305.517 420.629 305.253 420.413 304.913C420.202 304.57 420.043 304.166 419.937 303.704C419.832 303.237 419.779 302.728 419.779 302.177C419.779 301.406 419.869 300.738 420.05 300.174C420.235 299.606 420.521 299.167 420.909 298.859C421.297 298.546 421.793 298.39 422.396 298.39C422.938 298.39 423.403 298.535 423.791 298.826C424.183 299.117 424.483 299.544 424.69 300.108C424.897 300.668 425 301.357 425 302.177ZM421.187 302.19C421.187 302.763 421.228 303.243 421.312 303.631C421.4 304.019 421.533 304.312 421.709 304.51C421.889 304.704 422.119 304.801 422.396 304.801C422.674 304.801 422.898 304.704 423.07 304.51C423.247 304.316 423.374 304.025 423.454 303.638C423.537 303.25 423.579 302.763 423.579 302.177C423.579 301.604 423.537 301.126 423.454 300.743C423.374 300.355 423.247 300.066 423.07 299.877C422.898 299.683 422.672 299.586 422.39 299.586C421.967 299.586 421.66 299.802 421.471 300.234C421.281 300.661 421.187 301.313 421.187 302.19Z" fill="black"/>
<path d="M416.587 298.39C417.187 298.39 417.643 298.603 417.955 299.031C418.273 299.458 418.431 300.093 418.431 300.934V305.858H417.043V301.291C417.043 300.74 416.979 300.326 416.852 300.049C416.724 299.767 416.504 299.626 416.191 299.626C415.768 299.626 415.464 299.822 415.279 300.214C415.098 300.606 415.008 301.256 415.008 302.164V305.858H413.62V298.529H414.723L414.869 299.527H414.961C415.067 299.289 415.199 299.086 415.358 298.918C415.517 298.747 415.699 298.617 415.907 298.529C416.114 298.436 416.341 298.39 416.587 298.39Z" fill="black"/>
<path d="M409.951 298.39C410.647 298.39 411.16 298.608 411.491 299.044C411.821 299.48 411.986 300.119 411.986 300.961V305.858H410.955L410.737 304.847H410.704C410.572 305.094 410.424 305.303 410.261 305.475C410.098 305.647 409.911 305.775 409.7 305.858C409.492 305.947 409.25 305.991 408.972 305.991C408.58 305.991 408.261 305.887 408.014 305.68C407.767 305.468 407.587 305.193 407.472 304.854C407.358 304.515 407.3 304.153 407.3 303.77C407.3 303.025 407.51 302.455 407.928 302.058C408.351 301.661 408.95 301.446 409.726 301.41L410.598 301.364V300.967C410.598 300.474 410.528 300.11 410.387 299.877C410.246 299.643 410.015 299.527 409.693 299.527C409.486 299.527 409.263 299.566 409.025 299.646C408.792 299.72 408.534 299.839 408.252 300.002L407.849 298.965C408.153 298.775 408.481 298.632 408.834 298.535C409.191 298.438 409.563 298.39 409.951 298.39ZM410.605 302.329L410.023 302.362C409.578 302.388 409.248 302.514 409.032 302.739C408.816 302.963 408.708 303.29 408.708 303.717C408.708 304.109 408.776 304.4 408.913 304.589C409.054 304.779 409.25 304.874 409.501 304.874C409.841 304.874 410.109 304.711 410.308 304.385C410.506 304.054 410.605 303.605 410.605 303.036V302.329Z" fill="black"/>
<path d="M406.038 298.528V305.858H404.656V298.528H406.038ZM405.357 295.706C405.626 295.706 405.822 295.783 405.945 295.938C406.069 296.092 406.13 296.31 406.13 296.592C406.13 296.865 406.064 297.079 405.932 297.233C405.804 297.383 405.613 297.458 405.357 297.458C405.106 297.458 404.91 297.383 404.769 297.233C404.632 297.079 404.564 296.865 404.564 296.592C404.564 296.301 404.63 296.081 404.762 295.931C404.894 295.781 405.093 295.706 405.357 295.706Z" fill="black"/>
<path d="M403.004 305.858H401.616V295.574H403.004V305.858Z" fill="black"/>
<path d="M397.571 309.11C396.813 309.11 396.223 308.932 395.8 308.575C395.377 308.218 395.166 307.716 395.166 307.068C395.166 306.601 395.287 306.211 395.529 305.898C395.776 305.585 396.095 305.374 396.487 305.264C396.289 305.175 396.126 305.041 395.998 304.86C395.875 304.68 395.813 304.466 395.813 304.219C395.813 303.955 395.873 303.726 395.992 303.532C396.115 303.338 396.283 303.146 396.494 302.957C396.216 302.785 395.994 302.512 395.826 302.137C395.663 301.758 395.582 301.333 395.582 300.862C395.582 300.35 395.67 299.912 395.846 299.546C396.023 299.181 396.278 298.899 396.613 298.7C396.948 298.502 397.353 298.403 397.829 298.403C397.979 298.403 398.109 298.412 398.219 298.429C398.329 298.443 398.426 298.46 398.51 298.482C398.598 298.504 398.673 298.531 398.735 298.562H400.704V299.414L399.786 299.573C399.887 299.753 399.96 299.952 400.004 300.168C400.052 300.384 400.076 300.61 400.076 300.848C400.076 301.62 399.88 302.221 399.488 302.653C399.1 303.08 398.55 303.294 397.836 303.294C397.615 303.294 397.448 303.274 397.333 303.234C397.237 303.323 397.148 303.426 397.069 303.545C396.994 303.66 396.957 303.805 396.957 303.981C396.957 304.096 396.985 304.197 397.043 304.285C397.1 304.369 397.186 304.433 397.3 304.477C397.415 304.521 397.558 304.543 397.73 304.543H398.867C399.431 304.543 399.865 304.704 400.169 305.026C400.477 305.347 400.632 305.836 400.632 306.493C400.632 307.33 400.369 307.976 399.845 308.43C399.325 308.883 398.567 309.11 397.571 309.11ZM397.671 308.046C398.041 308.046 398.347 307.995 398.589 307.894C398.836 307.793 399.019 307.639 399.138 307.431C399.257 307.229 399.316 306.98 399.316 306.685C399.316 306.442 399.279 306.257 399.204 306.129C399.133 306.006 399.021 305.92 398.867 305.872C398.713 305.823 398.517 305.799 398.279 305.799H397.366C397.195 305.799 397.04 305.839 396.904 305.918C396.772 305.997 396.666 306.121 396.587 306.288C396.512 306.455 396.474 306.676 396.474 306.949C396.474 307.31 396.58 307.583 396.791 307.769C397.007 307.954 397.3 308.046 397.671 308.046ZM397.836 302.309C398.109 302.309 398.318 302.188 398.464 301.946C398.609 301.699 398.682 301.338 398.682 300.862C398.682 300.364 398.607 299.994 398.457 299.751C398.312 299.504 398.102 299.381 397.829 299.381C397.56 299.381 397.351 299.509 397.201 299.764C397.056 300.02 396.983 300.388 396.983 300.868C396.983 301.331 397.054 301.688 397.195 301.939C397.336 302.186 397.549 302.309 397.836 302.309Z" fill="black"/>
<path d="M392.211 298.403C392.735 298.403 393.174 298.544 393.526 298.826C393.879 299.103 394.143 299.489 394.319 299.983C394.495 300.476 394.584 301.042 394.584 301.681V302.534H391.094C391.103 303.309 391.23 303.889 391.477 304.272C391.728 304.651 392.109 304.841 392.621 304.841C392.907 304.841 393.182 304.801 393.447 304.722C393.711 304.638 393.991 304.503 394.286 304.318V305.508C394.013 305.671 393.724 305.792 393.42 305.872C393.116 305.951 392.79 305.991 392.442 305.991C391.799 305.991 391.277 305.834 390.876 305.521C390.475 305.204 390.182 304.763 389.997 304.199C389.816 303.635 389.726 302.981 389.726 302.236C389.726 301.412 389.818 300.716 390.003 300.148C390.188 299.579 390.466 299.148 390.836 298.852C391.206 298.553 391.664 298.403 392.211 298.403ZM392.231 299.513C391.891 299.513 391.625 299.672 391.431 299.989C391.237 300.306 391.129 300.807 391.107 301.49H393.295C393.295 301.111 393.255 300.773 393.176 300.478C393.096 300.179 392.977 299.943 392.819 299.771C392.665 299.599 392.469 299.513 392.231 299.513Z" fill="black"/>
<path d="M386.527 298.39C387.126 298.39 387.582 298.603 387.895 299.031C388.212 299.458 388.371 300.093 388.371 300.934V305.858H386.983V301.291C386.983 300.74 386.919 300.326 386.791 300.049C386.663 299.767 386.443 299.626 386.13 299.626C385.707 299.626 385.403 299.822 385.218 300.214C385.037 300.606 384.947 301.256 384.947 302.164V305.858H383.559V298.529H384.663L384.808 299.527H384.901C385.007 299.289 385.139 299.086 385.297 298.918C385.456 298.747 385.639 298.617 385.846 298.529C386.053 298.436 386.28 298.39 386.527 298.39Z" fill="black"/>
<path d="M382.198 302.177C382.198 302.723 382.147 303.228 382.046 303.691C381.945 304.153 381.788 304.556 381.577 304.9C381.37 305.244 381.099 305.513 380.764 305.706C380.433 305.896 380.037 305.991 379.574 305.991C379.133 305.991 378.75 305.896 378.424 305.706C378.098 305.517 377.827 305.253 377.611 304.913C377.4 304.57 377.241 304.166 377.135 303.704C377.029 303.237 376.977 302.728 376.977 302.177C376.977 301.406 377.067 300.738 377.248 300.174C377.433 299.606 377.719 299.167 378.107 298.859C378.495 298.546 378.99 298.39 379.594 298.39C380.136 298.39 380.601 298.535 380.989 298.826C381.381 299.117 381.68 299.544 381.887 300.108C382.095 300.668 382.198 301.357 382.198 302.177ZM378.384 302.19C378.384 302.763 378.426 303.243 378.51 303.631C378.598 304.019 378.73 304.312 378.907 304.51C379.087 304.704 379.316 304.801 379.594 304.801C379.872 304.801 380.096 304.704 380.268 304.51C380.444 304.316 380.572 304.025 380.651 303.638C380.735 303.25 380.777 302.763 380.777 302.177C380.777 301.604 380.735 301.126 380.651 300.743C380.572 300.355 380.444 300.066 380.268 299.877C380.096 299.683 379.869 299.586 379.587 299.586C379.164 299.586 378.858 299.802 378.669 300.234C378.479 300.661 378.384 301.313 378.384 302.19Z" fill="black"/>
<path d="M374.239 297.326C373.905 297.326 373.616 297.422 373.374 297.616C373.131 297.806 372.931 298.072 372.772 298.416C372.618 298.755 372.503 299.15 372.428 299.599C372.354 300.049 372.316 300.529 372.316 301.04C372.316 301.811 372.395 302.472 372.554 303.023C372.713 303.569 372.942 303.988 373.241 304.279C373.541 304.565 373.9 304.708 374.319 304.708C374.605 304.708 374.876 304.667 375.132 304.583C375.387 304.495 375.632 304.391 375.865 304.272V305.574C375.619 305.711 375.35 305.814 375.059 305.885C374.773 305.955 374.46 305.991 374.12 305.991C373.429 305.991 372.836 305.795 372.342 305.402C371.849 305.01 371.47 304.444 371.206 303.704C370.941 302.963 370.809 302.071 370.809 301.027C370.809 300.322 370.88 299.67 371.021 299.07C371.162 298.467 371.371 297.938 371.648 297.484C371.93 297.03 372.281 296.678 372.699 296.427C373.118 296.176 373.603 296.05 374.153 296.05C374.506 296.05 374.845 296.094 375.171 296.182C375.497 296.27 375.812 296.405 376.117 296.585L375.66 297.795C375.44 297.649 375.213 297.535 374.98 297.451C374.746 297.367 374.499 297.326 374.239 297.326Z" fill="black"/>
<circle cx="310.583" cy="369.541" r="10.829" fill="#006B5B"/>
<path d="M327.144 364.356H329.329C330.22 364.356 330.868 364.53 331.274 364.877C331.681 365.221 331.884 365.77 331.884 366.524C331.884 367.02 331.776 367.436 331.562 367.772C331.347 368.104 331.054 368.305 330.683 368.375V368.434C331.167 368.555 331.517 368.782 331.731 369.114C331.946 369.446 332.054 369.887 332.054 370.438C332.054 371.215 331.845 371.825 331.427 372.266C331.013 372.703 330.444 372.922 329.722 372.922H327.144V364.356ZM328.644 367.801H329.376C329.712 367.801 329.948 367.711 330.085 367.532C330.222 367.352 330.29 367.084 330.29 366.729C330.29 366.373 330.212 366.119 330.056 365.967C329.899 365.811 329.653 365.733 329.317 365.733H328.644V367.801ZM328.644 369.131V371.528H329.446C329.778 371.528 330.024 371.426 330.185 371.223C330.349 371.02 330.431 370.705 330.431 370.28C330.431 369.514 330.095 369.131 329.423 369.131H328.644ZM337.966 369.647C337.966 370.717 337.739 371.551 337.286 372.149C336.833 372.742 336.212 373.039 335.423 373.039C334.923 373.039 334.481 372.903 334.099 372.629C333.716 372.356 333.421 371.963 333.214 371.451C333.007 370.936 332.903 370.334 332.903 369.647C332.903 368.588 333.128 367.762 333.577 367.168C334.026 366.571 334.649 366.272 335.446 366.272C336.216 366.272 336.827 366.576 337.28 367.186C337.737 367.791 337.966 368.612 337.966 369.647ZM334.497 369.647C334.497 370.326 334.571 370.84 334.72 371.188C334.868 371.535 335.106 371.709 335.435 371.709C336.06 371.709 336.372 371.022 336.372 369.647C336.372 368.963 336.296 368.453 336.144 368.117C335.995 367.778 335.759 367.608 335.435 367.608C335.106 367.608 334.868 367.778 334.72 368.117C334.571 368.453 334.497 368.963 334.497 369.647ZM341.845 366.272C342.036 366.272 342.224 366.301 342.407 366.36L342.226 367.871C342.116 367.832 341.974 367.813 341.798 367.813C341.419 367.813 341.128 367.963 340.925 368.264C340.722 368.561 340.62 368.994 340.62 369.565V372.922H339.062V366.395H340.345L340.521 367.414H340.573C340.745 367.004 340.933 366.711 341.136 366.535C341.339 366.36 341.575 366.272 341.845 366.272ZM347.804 366.407V367.321L347.024 367.496C347.177 367.77 347.253 368.114 347.253 368.528C347.253 369.219 347.065 369.76 346.69 370.151C346.315 370.541 345.792 370.737 345.12 370.737C344.925 370.737 344.78 370.721 344.687 370.69C344.612 370.756 344.542 370.83 344.476 370.912C344.409 370.994 344.376 371.096 344.376 371.217C344.376 371.491 344.612 371.627 345.085 371.627H346.028C346.583 371.627 347.009 371.778 347.306 372.078C347.606 372.375 347.757 372.825 347.757 373.426C347.757 374.184 347.503 374.77 346.995 375.184C346.487 375.598 345.757 375.805 344.804 375.805C344.081 375.805 343.524 375.647 343.134 375.33C342.743 375.018 342.548 374.571 342.548 373.989C342.548 373.625 342.659 373.305 342.882 373.028C343.104 372.754 343.413 372.555 343.808 372.43C343.608 372.352 343.444 372.231 343.315 372.067C343.19 371.903 343.128 371.711 343.128 371.492C343.128 371.36 343.147 371.241 343.187 371.135C343.226 371.026 343.28 370.924 343.351 370.83C343.425 370.733 343.573 370.59 343.796 370.403C343.526 370.239 343.313 369.987 343.157 369.647C343.001 369.307 342.923 368.93 342.923 368.516C342.923 367.801 343.11 367.248 343.485 366.858C343.86 366.467 344.397 366.272 345.097 366.272C345.229 366.272 345.382 366.287 345.554 366.319C345.726 366.346 345.856 366.375 345.946 366.407H347.804ZM343.966 373.871C343.966 374.129 344.046 374.326 344.206 374.463C344.37 374.604 344.603 374.674 344.903 374.674C345.376 374.674 345.729 374.584 345.964 374.405C346.202 374.225 346.321 373.979 346.321 373.666C346.321 373.42 346.257 373.246 346.128 373.145C346.003 373.043 345.767 372.992 345.419 372.992H344.663C344.452 372.992 344.282 373.071 344.153 373.227C344.028 373.387 343.966 373.602 343.966 373.871ZM344.446 368.528C344.446 369.297 344.663 369.682 345.097 369.682C345.519 369.682 345.729 369.293 345.729 368.516C345.729 367.719 345.519 367.321 345.097 367.321C344.663 367.321 344.446 367.723 344.446 368.528ZM353.423 369.647C353.423 370.717 353.196 371.551 352.743 372.149C352.29 372.742 351.669 373.039 350.88 373.039C350.38 373.039 349.938 372.903 349.556 372.629C349.173 372.356 348.878 371.963 348.671 371.451C348.464 370.936 348.36 370.334 348.36 369.647C348.36 368.588 348.585 367.762 349.034 367.168C349.483 366.571 350.106 366.272 350.903 366.272C351.673 366.272 352.284 366.576 352.737 367.186C353.194 367.791 353.423 368.612 353.423 369.647ZM349.954 369.647C349.954 370.326 350.028 370.84 350.177 371.188C350.325 371.535 350.563 371.709 350.892 371.709C351.517 371.709 351.829 371.022 351.829 369.647C351.829 368.963 351.753 368.453 351.601 368.117C351.452 367.778 351.216 367.608 350.892 367.608C350.563 367.608 350.325 367.778 350.177 368.117C350.028 368.453 349.954 368.963 349.954 369.647ZM356.077 372.922H354.519V363.805H356.077V372.922ZM360.917 372.922L360.724 372.084H360.642C360.497 372.381 360.29 372.616 360.021 372.787C359.755 372.955 359.45 373.039 359.106 373.039C358.521 373.039 358.077 372.84 357.776 372.442C357.476 372.043 357.325 371.448 357.325 370.655V366.395H358.901V370.28C358.901 370.756 358.958 371.116 359.071 371.358C359.185 371.6 359.368 371.721 359.622 371.721C359.958 371.721 360.202 371.553 360.354 371.217C360.511 370.881 360.589 370.317 360.589 369.524V366.395H362.165V372.922H360.917ZM365.628 373.039C364.851 373.039 364.259 372.756 363.853 372.19C363.446 371.623 363.243 370.791 363.243 369.694C363.243 368.545 363.435 367.688 363.817 367.121C364.204 366.555 364.8 366.272 365.604 366.272C365.847 366.272 366.101 366.307 366.366 366.377C366.632 366.448 366.87 366.549 367.081 366.682L366.636 367.895C366.312 367.703 366.024 367.608 365.774 367.608C365.442 367.608 365.202 367.782 365.054 368.129C364.909 368.473 364.837 368.991 364.837 369.682C364.837 370.358 364.909 370.864 365.054 371.2C365.198 371.532 365.435 371.698 365.763 371.698C366.153 371.698 366.562 371.561 366.987 371.287V372.659C366.577 372.912 366.124 373.039 365.628 373.039ZM370.333 373.039C369.517 373.039 368.872 372.75 368.399 372.172C367.931 371.59 367.696 370.768 367.696 369.705C367.696 368.627 367.909 367.785 368.335 367.18C368.761 366.575 369.354 366.272 370.116 366.272C370.827 366.272 371.388 366.532 371.798 367.051C372.208 367.567 372.413 368.291 372.413 369.225V370.057H369.278C369.29 370.639 369.409 371.073 369.636 371.358C369.862 371.639 370.175 371.78 370.573 371.78C371.081 371.78 371.601 371.621 372.132 371.305V372.588C371.632 372.889 371.032 373.039 370.333 373.039ZM370.104 367.473C369.882 367.473 369.698 367.592 369.554 367.83C369.409 368.065 369.325 368.43 369.302 368.926H370.884C370.876 368.45 370.804 368.088 370.667 367.842C370.53 367.596 370.343 367.473 370.104 367.473Z" fill="black"/>
<path fill-rule="evenodd" clip-rule="evenodd" d="M3.09432 462.217L1.99951 462.217L1.99951 461.154L3.09432 461.154L3.09432 462.217ZM7.47357 462.217L5.28394 462.217L5.28394 461.154L7.47357 461.154L7.47357 462.217ZM11.8528 462.217L9.66319 462.217L9.66319 461.154L11.8528 461.154L11.8528 462.217ZM16.2321 462.217L14.0424 462.217L14.0424 461.154L16.2321 461.154L16.2321 462.217ZM20.6113 462.217L18.4217 462.217L18.4217 461.154L20.6113 461.154L20.6113 462.217ZM24.9905 462.217L22.8009 462.217L22.8009 461.154L24.9905 461.154L24.9905 462.217ZM29.3698 462.217L27.1802 462.217L27.1802 461.154L29.3698 461.154L29.3698 462.217ZM33.749 462.217L31.5594 462.217L31.5594 461.154L33.749 461.154L33.749 462.217ZM38.1283 462.217L35.9387 462.217L35.9387 461.154L38.1283 461.154L38.1283 462.217ZM42.5075 462.217L40.3179 462.217L40.3179 461.154L42.5075 461.154L42.5075 462.217ZM46.8868 462.217L44.6971 462.217L44.6971 461.154L46.8868 461.154L46.8868 462.217ZM51.266 462.217L49.0764 462.217L49.0764 461.154L51.266 461.154L51.266 462.217ZM55.6453 462.217L53.4556 462.217L53.4556 461.154L55.6453 461.154L55.6453 462.217ZM60.0245 462.217L57.8349 462.217L57.8349 461.154L60.0245 461.154L60.0245 462.217ZM64.4037 462.217L62.2141 462.217L62.2141 461.154L64.4037 461.154L64.4037 462.217ZM68.783 462.217L66.5934 462.217L66.5934 461.154L68.783 461.154L68.783 462.217ZM73.1622 462.217L70.9726 462.217L70.9726 461.154L73.1622 461.154L73.1622 462.217ZM77.5415 462.217L75.3519 462.217L75.3519 461.154L77.5415 461.154L77.5415 462.217ZM81.9207 462.217L79.7311 462.217L79.7311 461.154L81.9207 461.154L81.9207 462.217ZM86.2999 462.217L84.1103 462.217L84.1103 461.154L86.2999 461.154L86.2999 462.217ZM90.6792 462.217L88.4896 462.217L88.4896 461.154L90.6792 461.154L90.6792 462.217ZM95.0584 462.217L92.8688 462.217L92.8688 461.154L95.0584 461.154L95.0584 462.217ZM99.4377 462.217L97.248 462.217L97.248 461.154L99.4377 461.154L99.4377 462.217ZM103.817 462.217L101.627 462.217L101.627 461.154L103.817 461.154L103.817 462.217ZM108.196 462.217L106.007 462.217L106.007 461.154L108.196 461.154L108.196 462.217ZM112.575 462.217L110.386 462.217L110.386 461.154L112.575 461.154L112.575 462.217ZM116.955 462.217L114.765 462.217L114.765 461.154L116.955 461.154L116.955 462.217ZM121.334 462.217L119.144 462.217L119.144 461.154L121.334 461.154L121.334 462.217ZM125.713 462.217L123.523 462.217L123.523 461.154L125.713 461.154L125.713 462.217ZM130.092 462.217L127.903 462.217L127.903 461.154L130.092 461.154L130.092 462.217ZM134.472 462.217L132.282 462.217L132.282 461.154L134.472 461.154L134.472 462.217ZM138.851 462.217L136.661 462.217L136.661 461.154L138.851 461.154L138.851 462.217ZM143.23 462.217L141.04 462.217L141.04 461.154L143.23 461.154L143.23 462.217ZM147.609 462.217L145.42 462.217L145.42 461.154L147.609 461.154L147.609 462.217ZM151.989 462.217L149.799 462.217L149.799 461.154L151.989 461.154L151.989 462.217ZM156.368 462.217L154.178 462.217L154.178 461.154L156.368 461.154L156.368 462.217ZM160.747 462.217L158.557 462.217L158.557 461.154L160.747 461.154L160.747 462.217ZM165.126 462.217L162.937 462.217L162.937 461.154L165.126 461.154L165.126 462.217ZM169.506 462.217L167.316 462.217L167.316 461.154L169.506 461.154L169.506 462.217ZM173.885 462.217L171.695 462.217L171.695 461.154L173.885 461.154L173.885 462.217ZM178.264 462.217L176.074 462.217L176.074 461.154L178.264 461.154L178.264 462.217ZM182.643 462.217L180.454 462.217L180.454 461.154L182.643 461.154L182.643 462.217ZM187.023 462.217L184.833 462.217L184.833 461.154L187.023 461.154L187.023 462.217ZM191.402 462.217L189.212 462.217L189.212 461.154L191.402 461.154L191.402 462.217ZM195.781 462.217L193.591 462.217L193.591 461.154L195.781 461.154L195.781 462.217ZM200.16 462.217L197.971 462.217L197.971 461.154L200.16 461.154L200.16 462.217ZM204.54 462.217L202.35 462.217L202.35 461.154L204.54 461.154L204.54 462.217ZM208.919 462.217L206.729 462.217L206.729 461.154L208.919 461.154L208.919 462.217ZM213.298 462.217L211.108 462.217L211.108 461.154L213.298 461.154L213.298 462.217ZM217.677 462.217L215.488 462.217L215.488 461.154L217.677 461.154L217.677 462.217ZM222.057 462.217L219.867 462.217L219.867 461.154L222.057 461.154L222.057 462.217ZM226.436 462.217L224.246 462.217L224.246 461.154L226.436 461.154L226.436 462.217ZM230.815 462.217L228.625 462.217L228.625 461.154L230.815 461.154L230.815 462.217ZM235.194 462.217L233.005 462.217L233.005 461.154L235.194 461.154L235.194 462.217ZM239.574 462.217L237.384 462.217L237.384 461.154L239.574 461.154L239.574 462.217ZM243.953 462.217L241.763 462.217L241.763 461.154L243.953 461.154L243.953 462.217ZM248.332 462.217L246.142 462.217L246.142 461.154L248.332 461.154L248.332 462.217ZM252.711 462.217L250.522 462.217L250.522 461.154L252.711 461.154L252.711 462.217ZM257.091 462.217L254.901 462.217L254.901 461.154L257.091 461.154L257.091 462.217ZM261.47 462.217L259.28 462.217L259.28 461.154L261.47 461.154L261.47 462.217ZM265.849 462.217L263.659 462.217L263.659 461.154L265.849 461.154L265.849 462.217ZM270.228 462.217L268.039 462.217L268.039 461.154L270.228 461.154L270.228 462.217ZM274.608 462.217L272.418 462.217L272.418 461.154L274.608 461.154L274.608 462.217ZM278.987 462.217L276.797 462.217L276.797 461.154L278.987 461.154L278.987 462.217ZM283.366 462.217L281.177 462.217L281.177 461.154L283.366 461.154L283.366 462.217ZM287.745 462.217L285.556 462.217L285.556 461.154L287.745 461.154L287.745 462.217ZM292.125 462.217L289.935 462.217L289.935 461.154L292.125 461.154L292.125 462.217ZM296.504 462.217L294.314 462.217L294.314 461.154L296.504 461.154L296.504 462.217ZM300.883 462.217L298.694 462.217L298.694 461.154L300.883 461.154L300.883 462.217ZM305.262 462.217L303.073 462.217L303.073 461.154L305.262 461.154L305.262 462.217ZM309.642 462.217L307.452 462.217L307.452 461.154L309.642 461.154L309.642 462.217ZM314.021 462.217L311.831 462.217L311.831 461.154L314.021 461.154L314.021 462.217ZM318.4 462.217L316.211 462.217L316.211 461.154L318.4 461.154L318.4 462.217ZM322.779 462.217L320.59 462.217L320.59 461.154L322.779 461.154L322.779 462.217ZM327.159 462.217L324.969 462.217L324.969 461.154L327.159 461.154L327.159 462.217ZM331.538 462.217L329.348 462.217L329.348 461.154L331.538 461.154L331.538 462.217ZM335.917 462.217L333.728 462.217L333.728 461.154L335.917 461.154L335.917 462.217ZM340.296 462.217L338.107 462.217L338.107 461.154L340.296 461.154L340.296 462.217ZM344.676 462.217L342.486 462.217L342.486 461.154L344.676 461.154L344.676 462.217ZM349.055 462.217L346.865 462.217L346.865 461.154L349.055 461.154L349.055 462.217ZM353.434 462.217L351.245 462.217L351.245 461.154L353.434 461.154L353.434 462.217ZM357.813 462.217L355.624 462.217L355.624 461.154L357.813 461.154L357.813 462.217ZM362.193 462.217L360.003 462.217L360.003 461.154L362.193 461.154L362.193 462.217ZM366.572 462.217L364.382 462.217L364.382 461.154L366.572 461.154L366.572 462.217ZM370.951 462.217L368.762 462.217L368.762 461.154L370.951 461.154L370.951 462.217ZM375.33 462.217L373.141 462.217L373.141 461.154L375.33 461.154L375.33 462.217ZM379.71 462.217L377.52 462.217L377.52 461.154L379.71 461.154L379.71 462.217ZM384.089 462.217L381.899 462.217L381.899 461.154L384.089 461.154L384.089 462.217ZM388.468 462.217L386.279 462.217L386.279 461.154L388.468 461.154L388.468 462.217ZM392.847 462.217L390.658 462.217L390.658 461.154L392.847 461.154L392.847 462.217ZM397.227 462.217L395.037 462.217L395.037 461.154L397.227 461.154L397.227 462.217ZM401.606 462.217L399.416 462.217L399.416 461.154L401.606 461.154L401.606 462.217ZM405.985 462.217L403.796 462.217L403.796 461.154L405.985 461.154L405.985 462.217ZM410.364 462.217L408.175 462.217L408.175 461.154L410.364 461.154L410.364 462.217ZM414.744 462.217L412.554 462.217L412.554 461.154L414.744 461.154L414.744 462.217ZM419.123 462.217L416.933 462.217L416.933 461.154L419.123 461.154L419.123 462.217ZM423.502 462.217L421.313 462.217L421.313 461.154L423.502 461.154L423.502 462.217ZM427.881 462.217L425.692 462.217L425.692 461.154L427.881 461.154L427.881 462.217ZM432.261 462.217L430.071 462.217L430.071 461.154L432.261 461.154L432.261 462.217ZM436.64 462.217L434.45 462.217L434.45 461.154L436.64 461.154L436.64 462.217ZM441.019 462.217L438.83 462.217L438.83 461.154L441.019 461.154L441.019 462.217ZM445.398 462.217L443.209 462.217L443.209 461.154L445.398 461.154L445.398 462.217ZM449.778 462.217L447.588 462.217L447.588 461.154L449.778 461.154L449.778 462.217ZM454.157 462.217L451.967 462.217L451.967 461.154L454.157 461.154L454.157 462.217ZM458.536 462.217L456.347 462.217L456.347 461.154L458.536 461.154L458.536 462.217ZM462.916 462.217L460.726 462.217L460.726 461.154L462.916 461.154L462.916 462.217ZM466.199 462.217L465.105 462.217L465.105 461.154L466.199 461.154L466.199 462.217Z" fill="#ABABAB"/>
<path fill-rule="evenodd" clip-rule="evenodd" d="M3.09481 474.197L2 474.197L2 473.134L3.09481 473.134L3.09481 474.197ZM7.47406 474.197L5.28443 474.197L5.28443 473.134L7.47406 473.134L7.47406 474.197ZM11.8533 474.197L9.66368 474.197L9.66368 473.134L11.8533 473.134L11.8533 474.197ZM16.2325 474.197L14.0429 474.197L14.0429 473.134L16.2325 473.134L16.2325 474.197ZM20.6118 474.197L18.4222 474.197L18.4222 473.134L20.6118 473.134L20.6118 474.197ZM24.991 474.197L22.8014 474.197L22.8014 473.134L24.991 473.134L24.991 474.197ZM29.3703 474.197L27.1807 474.197L27.1807 473.134L29.3703 473.134L29.3703 474.197ZM33.7495 474.197L31.5599 474.197L31.5599 473.134L33.7495 473.134L33.7495 474.197ZM38.1288 474.197L35.9391 474.197L35.9391 473.134L38.1288 473.134L38.1288 474.197ZM42.508 474.197L40.3184 474.197L40.3184 473.134L42.508 473.134L42.508 474.197ZM46.8873 474.197L44.6976 474.197L44.6976 473.134L46.8873 473.134L46.8873 474.197ZM51.2665 474.197L49.0769 474.197L49.0769 473.134L51.2665 473.134L51.2665 474.197ZM55.6457 474.197L53.4561 474.197L53.4561 473.134L55.6457 473.134L55.6457 474.197ZM60.025 474.197L57.8354 474.197L57.8354 473.134L60.025 473.134L60.025 474.197ZM64.4042 474.197L62.2146 474.197L62.2146 473.134L64.4042 473.134L64.4042 474.197ZM68.7835 474.197L66.5939 474.197L66.5939 473.134L68.7835 473.134L68.7835 474.197ZM73.1627 474.197L70.9731 474.197L70.9731 473.134L73.1627 473.134L73.1627 474.197ZM77.542 474.197L75.3523 474.197L75.3523 473.134L77.542 473.134L77.542 474.197ZM81.9212 474.197L79.7316 474.197L79.7316 473.134L81.9212 473.134L81.9212 474.197ZM86.3004 474.197L84.1108 474.197L84.1108 473.134L86.3004 473.134L86.3004 474.197ZM90.6797 474.197L88.4901 474.197L88.4901 473.134L90.6797 473.134L90.6797 474.197ZM95.0589 474.197L92.8693 474.197L92.8693 473.134L95.0589 473.134L95.0589 474.197ZM99.4381 474.197L97.2485 474.197L97.2485 473.134L99.4381 473.134L99.4381 474.197ZM103.817 474.197L101.628 474.197L101.628 473.134L103.817 473.134L103.817 474.197ZM108.197 474.197L106.007 474.197L106.007 473.134L108.197 473.134L108.197 474.197ZM112.576 474.197L110.386 474.197L110.386 473.134L112.576 473.134L112.576 474.197ZM116.955 474.197L114.765 474.197L114.765 473.134L116.955 473.134L116.955 474.197ZM121.334 474.197L119.145 474.197L119.145 473.134L121.334 473.134L121.334 474.197ZM125.714 474.197L123.524 474.197L123.524 473.134L125.714 473.134L125.714 474.197ZM130.093 474.197L127.903 474.197L127.903 473.134L130.093 473.134L130.093 474.197ZM134.472 474.197L132.282 474.197L132.282 473.134L134.472 473.134L134.472 474.197ZM138.851 474.197L136.662 474.197L136.662 473.134L138.851 473.134L138.851 474.197ZM143.231 474.197L141.041 474.197L141.041 473.134L143.231 473.134L143.231 474.197ZM147.61 474.197L145.42 474.197L145.42 473.134L147.61 473.134L147.61 474.197ZM151.989 474.197L149.799 474.197L149.799 473.134L151.989 473.134L151.989 474.197ZM156.368 474.197L154.179 474.197L154.179 473.134L156.368 473.134L156.368 474.197ZM160.748 474.197L158.558 474.197L158.558 473.134L160.748 473.134L160.748 474.197ZM165.127 474.197L162.937 474.197L162.937 473.134L165.127 473.134L165.127 474.197ZM169.506 474.197L167.316 474.197L167.316 473.134L169.506 473.134L169.506 474.197ZM173.885 474.197L171.696 474.197L171.696 473.134L173.885 473.134L173.885 474.197ZM178.265 474.197L176.075 474.197L176.075 473.134L178.265 473.134L178.265 474.197ZM182.644 474.197L180.454 474.197L180.454 473.134L182.644 473.134L182.644 474.197ZM187.023 474.197L184.833 474.197L184.833 473.134L187.023 473.134L187.023 474.197ZM191.402 474.197L189.213 474.197L189.213 473.134L191.402 473.134L191.402 474.197ZM195.782 474.197L193.592 474.197L193.592 473.134L195.782 473.134L195.782 474.197ZM200.161 474.197L197.971 474.197L197.971 473.134L200.161 473.134L200.161 474.197ZM204.54 474.197L202.35 474.197L202.35 473.134L204.54 473.134L204.54 474.197ZM208.919 474.197L206.73 474.197L206.73 473.134L208.919 473.134L208.919 474.197ZM213.299 474.197L211.109 474.197L211.109 473.134L213.299 473.134L213.299 474.197ZM217.678 474.197L215.488 474.197L215.488 473.134L217.678 473.134L217.678 474.197ZM222.057 474.197L219.867 474.197L219.867 473.134L222.057 473.134L222.057 474.197ZM226.436 474.197L224.247 474.197L224.247 473.134L226.436 473.134L226.436 474.197ZM230.816 474.197L228.626 474.197L228.626 473.134L230.816 473.134L230.816 474.197ZM235.195 474.197L233.005 474.197L233.005 473.134L235.195 473.134L235.195 474.197ZM239.574 474.197L237.384 474.197L237.384 473.134L239.574 473.134L239.574 474.197ZM243.953 474.197L241.764 474.197L241.764 473.134L243.953 473.134L243.953 474.197ZM248.333 474.197L246.143 474.197L246.143 473.134L248.333 473.134L248.333 474.197ZM252.712 474.197L250.522 474.197L250.522 473.134L252.712 473.134L252.712 474.197ZM257.091 474.197L254.901 474.197L254.901 473.134L257.091 473.134L257.091 474.197ZM261.47 474.197L259.281 474.197L259.281 473.134L261.47 473.134L261.47 474.197ZM265.85 474.197L263.66 474.197L263.66 473.134L265.85 473.134L265.85 474.197ZM270.229 474.197L268.039 474.197L268.039 473.134L270.229 473.134L270.229 474.197ZM274.608 474.197L272.418 474.197L272.418 473.134L274.608 473.134L274.608 474.197ZM278.987 474.197L276.798 474.197L276.798 473.134L278.987 473.134L278.987 474.197ZM283.367 474.197L281.177 474.197L281.177 473.134L283.367 473.134L283.367 474.197ZM287.746 474.197L285.556 474.197L285.556 473.134L287.746 473.134L287.746 474.197ZM292.125 474.197L289.935 474.197L289.935 473.134L292.125 473.134L292.125 474.197ZM296.504 474.197L294.315 474.197L294.315 473.134L296.504 473.134L296.504 474.197ZM300.884 474.197L298.694 474.197L298.694 473.134L300.884 473.134L300.884 474.197ZM305.263 474.197L303.073 474.197L303.073 473.134L305.263 473.134L305.263 474.197ZM309.642 474.197L307.452 474.197L307.452 473.134L309.642 473.134L309.642 474.197ZM314.021 474.197L311.832 474.197L311.832 473.134L314.021 473.134L314.021 474.197ZM318.401 474.197L316.211 474.197L316.211 473.134L318.401 473.134L318.401 474.197ZM322.78 474.197L320.59 474.197L320.59 473.134L322.78 473.134L322.78 474.197ZM327.159 474.197L324.97 474.197L324.97 473.134L327.159 473.134L327.159 474.197ZM331.538 474.197L329.349 474.197L329.349 473.134L331.538 473.134L331.538 474.197ZM335.918 474.197L333.728 474.197L333.728 473.134L335.918 473.134L335.918 474.197ZM340.297 474.197L338.107 474.197L338.107 473.134L340.297 473.134L340.297 474.197ZM344.676 474.197L342.487 474.197L342.487 473.134L344.676 473.134L344.676 474.197ZM349.055 474.197L346.866 474.197L346.866 473.134L349.055 473.134L349.055 474.197ZM353.435 474.197L351.245 474.197L351.245 473.134L353.435 473.134L353.435 474.197ZM357.814 474.197L355.624 474.197L355.624 473.134L357.814 473.134L357.814 474.197ZM362.193 474.197L360.004 474.197L360.004 473.134L362.193 473.134L362.193 474.197ZM366.572 474.197L364.383 474.197L364.383 473.134L366.572 473.134L366.572 474.197ZM370.952 474.197L368.762 474.197L368.762 473.134L370.952 473.134L370.952 474.197ZM375.331 474.197L373.141 474.197L373.141 473.134L375.331 473.134L375.331 474.197ZM379.71 474.197L377.521 474.197L377.521 473.134L379.71 473.134L379.71 474.197ZM384.089 474.197L381.9 474.197L381.9 473.134L384.089 473.134L384.089 474.197ZM388.469 474.197L386.279 474.197L386.279 473.134L388.469 473.134L388.469 474.197ZM392.848 474.197L390.658 474.197L390.658 473.134L392.848 473.134L392.848 474.197ZM397.227 474.197L395.038 474.197L395.038 473.134L397.227 473.134L397.227 474.197ZM401.606 474.197L399.417 474.197L399.417 473.134L401.606 473.134L401.606 474.197ZM405.986 474.197L403.796 474.197L403.796 473.134L405.986 473.134L405.986 474.197ZM410.365 474.197L408.175 474.197L408.175 473.134L410.365 473.134L410.365 474.197ZM414.744 474.197L412.555 474.197L412.555 473.134L414.744 473.134L414.744 474.197ZM419.123 474.197L416.934 474.197L416.934 473.134L419.123 473.134L419.123 474.197ZM423.503 474.197L421.313 474.197L421.313 473.134L423.503 473.134L423.503 474.197ZM427.882 474.197L425.692 474.197L425.692 473.134L427.882 473.134L427.882 474.197ZM432.261 474.197L430.072 474.197L430.072 473.134L432.261 473.134L432.261 474.197ZM436.64 474.197L434.451 474.197L434.451 473.134L436.64 473.134L436.64 474.197ZM441.02 474.197L438.83 474.197L438.83 473.134L441.02 473.134L441.02 474.197ZM445.399 474.197L443.209 474.197L443.209 473.134L445.399 473.134L445.399 474.197ZM449.778 474.197L447.589 474.197L447.589 473.134L449.778 473.134L449.778 474.197ZM454.157 474.197L451.968 474.197L451.968 473.134L454.157 473.134L454.157 474.197ZM458.537 474.197L456.347 474.197L456.347 473.134L458.537 473.134L458.537 474.197ZM462.916 474.197L460.726 474.197L460.726 473.134L462.916 473.134L462.916 474.197ZM466.2 474.197L465.106 474.197L465.106 473.134L466.2 473.134L466.2 474.197Z" fill="#ABABAB"/>
<path d="M28.4048 453.346C28.9275 453.346 29.3144 453.53 29.5655 453.898C29.8208 454.262 29.9484 454.818 29.9484 455.565L29.9484 459.91L29.0125 459.91L29.0125 455.724C29.0125 455.16 28.9376 454.757 28.7877 454.515C28.6418 454.268 28.4291 454.145 28.1496 454.145C27.7445 454.145 27.4548 454.329 27.2806 454.697C27.1064 455.064 27.0193 455.597 27.0193 456.293L27.0193 459.91L26.0956 459.91L26.0956 455.712C26.0956 455.329 26.0632 455.023 25.9984 454.796C25.9335 454.565 25.8363 454.399 25.7067 454.297C25.5811 454.196 25.4211 454.145 25.2266 454.145C24.9268 454.145 24.6959 454.245 24.5338 454.444C24.3718 454.644 24.2583 454.918 24.1935 455.266C24.1327 455.614 24.1024 456.012 24.1024 456.458L24.1024 459.91L23.1665 459.91L23.1665 453.464L23.914 453.464L24.0234 454.38L24.078 454.38C24.1631 454.16 24.2725 453.974 24.4062 453.822C24.5399 453.669 24.6979 453.552 24.8802 453.47C25.0666 453.387 25.2752 453.346 25.5061 453.346C25.891 453.346 26.1928 453.448 26.4116 453.652C26.6344 453.851 26.7823 454.104 26.8552 454.409L26.9221 454.409C27.076 454.049 27.2684 453.783 27.4994 453.61C27.7303 453.434 28.0321 453.346 28.4048 453.346Z" fill="black"/>
<path d="M21.8171 455.618C21.8171 456.307 21.7766 456.924 21.6956 457.468C21.6186 458.012 21.495 458.474 21.3249 458.853C21.1547 459.233 20.9339 459.523 20.6625 459.722C20.3951 459.922 20.073 460.022 19.6963 460.022C19.2466 460.022 18.8637 459.888 18.5477 459.622C18.2317 459.352 17.9886 458.898 17.8185 458.26C17.6524 457.618 17.5693 456.738 17.5693 455.618C17.5693 454.64 17.6463 453.824 17.8003 453.17C17.9583 452.517 18.1932 452.025 18.5052 451.697C18.8212 451.368 19.2182 451.203 19.6963 451.203C20.1824 451.203 20.5815 451.37 20.8934 451.702C21.2054 452.031 21.4363 452.522 21.5862 453.176C21.7402 453.83 21.8171 454.644 21.8171 455.618ZM18.5477 455.618C18.5477 456.405 18.5862 457.063 18.6632 457.591C18.7402 458.115 18.8637 458.511 19.0339 458.777C19.204 459.043 19.4248 459.176 19.6963 459.176C19.9677 459.176 20.1885 459.043 20.3587 458.777C20.5288 458.507 20.6524 458.108 20.7294 457.579C20.8104 457.051 20.8509 456.397 20.8509 455.618C20.8509 454.839 20.8104 454.186 20.7294 453.657C20.6483 453.129 20.5227 452.73 20.3526 452.46C20.1865 452.19 19.9677 452.055 19.6963 452.055C19.4248 452.055 19.204 452.188 19.0339 452.454C18.8637 452.72 18.7402 453.117 18.6632 453.646C18.5862 454.17 18.5477 454.828 18.5477 455.618Z" fill="black"/>
<path d="M16.5183 455.618C16.5183 456.307 16.4778 456.924 16.3968 457.468C16.3198 458.012 16.1962 458.474 16.0261 458.853C15.8559 459.233 15.6351 459.523 15.3637 459.722C15.0963 459.922 14.7742 460.022 14.3974 460.022C13.9477 460.022 13.5649 459.888 13.2489 459.622C12.9329 459.352 12.6898 458.898 12.5197 458.26C12.3536 457.618 12.2705 456.738 12.2705 455.618C12.2705 454.64 12.3475 453.824 12.5014 453.17C12.6594 452.517 12.8944 452.025 13.2064 451.697C13.5224 451.368 13.9194 451.203 14.3974 451.203C14.8836 451.203 15.2827 451.37 15.5946 451.702C15.9066 452.031 16.1375 452.522 16.2874 453.176C16.4413 453.83 16.5183 454.644 16.5183 455.618ZM13.2489 455.618C13.2489 456.405 13.2874 457.063 13.3644 457.591C13.4413 458.115 13.5649 458.511 13.7351 458.777C13.9052 459.043 14.126 459.176 14.3974 459.176C14.6689 459.176 14.8897 459.043 15.0598 458.777C15.23 458.507 15.3535 458.108 15.4305 457.579C15.5115 457.051 15.5521 456.397 15.5521 455.618C15.5521 454.839 15.5115 454.186 15.4305 453.657C15.3495 453.129 15.2239 452.73 15.0538 452.46C14.8876 452.19 14.6689 452.055 14.3974 452.055C14.126 452.055 13.9052 452.188 13.7351 452.454C13.5649 452.72 13.4413 453.117 13.3644 453.646C13.2874 454.17 13.2489 454.828 13.2489 455.618Z" fill="black"/>
<path d="M11.219 455.618C11.219 456.307 11.1785 456.924 11.0974 457.468C11.0205 458.012 10.8969 458.474 10.7267 458.853C10.5566 459.233 10.3358 459.523 10.0644 459.722C9.79697 459.922 9.4749 460.022 9.09812 460.022C8.64843 460.022 8.26558 459.888 7.94958 459.622C7.63358 459.352 7.3905 458.898 7.22035 458.26C7.05424 457.618 6.97119 456.738 6.97119 455.618C6.97119 454.64 7.04817 453.824 7.20212 453.17C7.36012 452.517 7.59509 452.025 7.90704 451.697C8.22304 451.368 8.62007 451.203 9.09812 451.203C9.58428 451.203 9.98333 451.37 10.2953 451.702C10.6072 452.031 10.8382 452.522 10.9881 453.176C11.142 453.83 11.219 454.644 11.219 455.618ZM7.94958 455.618C7.94958 456.405 7.98807 457.063 8.06504 457.591C8.14202 458.115 8.26558 458.511 8.43574 458.777C8.60589 459.043 8.82669 459.176 9.09812 459.176C9.36956 459.176 9.59036 459.043 9.76051 458.777C9.93067 458.507 10.0542 458.108 10.1312 457.579C10.2122 457.051 10.2527 456.397 10.2527 455.618C10.2527 454.839 10.2122 454.186 10.1312 453.657C10.0502 453.129 9.92459 452.73 9.75444 452.46C9.58833 452.19 9.36956 452.055 9.09812 452.055C8.82669 452.055 8.60589 452.188 8.43574 452.454C8.26558 452.72 8.14202 453.117 8.06504 453.646C7.98807 454.17 7.94958 454.828 7.94958 455.618Z" fill="black"/>
<path d="M4.7412 459.91L3.78104 459.91L3.78104 454.015C3.78104 453.843 3.78307 453.671 3.78712 453.499C3.79117 453.323 3.79725 453.145 3.80535 452.965C3.81345 452.785 3.82155 452.605 3.82966 452.424C3.77699 452.499 3.70609 452.583 3.61696 452.677C3.52783 452.771 3.41642 452.88 3.28273 453.006L2.49273 453.745L1.9458 453.17L3.91473 451.327L4.7412 451.327L4.7412 459.91Z" fill="black"/>
<path d="M22.0359 465.986C22.5081 465.986 22.8577 466.153 23.0846 466.485C23.3152 466.814 23.4305 467.316 23.4305 467.992L23.4305 471.917L22.5849 471.917L22.5849 468.135C22.5849 467.626 22.5172 467.261 22.3818 467.042C22.25 466.819 22.0578 466.708 21.8052 466.708C21.4392 466.708 21.1775 466.874 21.0201 467.206C20.8626 467.539 20.7839 468.02 20.7839 468.649L20.7839 471.917L19.9493 471.917L19.9493 468.124C19.9493 467.778 19.92 467.502 19.8615 467.297C19.8029 467.088 19.7151 466.938 19.5979 466.846C19.4844 466.754 19.3398 466.708 19.1641 466.708C18.8933 466.708 18.6846 466.798 18.5382 466.978C18.3918 467.159 18.2893 467.406 18.2307 467.721C18.1758 468.036 18.1483 468.395 18.1483 468.798L18.1483 471.917L17.3027 471.917L17.3027 466.092L17.9781 466.092L18.0769 466.92L18.1264 466.92C18.2032 466.722 18.3021 466.554 18.4229 466.416C18.5437 466.278 18.6864 466.172 18.8512 466.098C19.0195 466.024 19.2081 465.986 19.4167 465.986C19.7645 465.986 20.0372 466.078 20.2349 466.262C20.4362 466.443 20.5698 466.671 20.6357 466.947L20.6961 466.947C20.8352 466.621 21.0091 466.381 21.2177 466.225C21.4264 466.066 21.6991 465.986 22.0359 465.986Z" fill="black"/>
<path d="M16.0837 468.039C16.0837 468.662 16.0471 469.219 15.9739 469.71C15.9044 470.202 15.7927 470.619 15.639 470.962C15.4852 471.305 15.2857 471.567 15.0405 471.747C14.7989 471.928 14.5078 472.018 14.1674 472.018C13.7611 472.018 13.4152 471.898 13.1296 471.657C12.8441 471.413 12.6245 471.003 12.4707 470.426C12.3206 469.846 12.2456 469.051 12.2456 468.039C12.2456 467.155 12.3152 466.418 12.4543 465.827C12.597 465.237 12.8093 464.793 13.0912 464.496C13.3767 464.199 13.7355 464.05 14.1674 464.05C14.6067 464.05 14.9672 464.2 15.2491 464.501C15.531 464.798 15.7396 465.242 15.8751 465.833C16.0142 466.423 16.0837 467.159 16.0837 468.039ZM13.1296 468.039C13.1296 468.75 13.1644 469.344 13.234 469.822C13.3035 470.296 13.4152 470.653 13.5689 470.893C13.7226 471.134 13.9221 471.254 14.1674 471.254C14.4127 471.254 14.6122 471.134 14.7659 470.893C14.9197 470.649 15.0313 470.289 15.1009 469.811C15.1741 469.334 15.2107 468.743 15.2107 468.039C15.2107 467.336 15.1741 466.745 15.1009 466.268C15.0276 465.79 14.9142 465.429 14.7604 465.185C14.6103 464.941 14.4127 464.819 14.1674 464.819C13.9221 464.819 13.7226 464.94 13.5689 465.18C13.4152 465.421 13.3035 465.78 13.234 466.257C13.1644 466.731 13.1296 467.325 13.1296 468.039Z" fill="black"/>
<path d="M11.2956 468.039C11.2956 468.662 11.259 469.219 11.1858 469.71C11.1163 470.202 11.0046 470.619 10.8509 470.962C10.6971 471.305 10.4976 471.567 10.2524 471.747C10.0108 471.928 9.71976 472.018 9.37932 472.018C8.973 472.018 8.62707 471.898 8.34155 471.657C8.05602 471.413 7.83639 471.003 7.68264 470.426C7.53256 469.846 7.45752 469.051 7.45752 468.039C7.45752 467.155 7.52707 466.418 7.66617 465.827C7.80893 465.237 8.02125 464.793 8.30311 464.496C8.58864 464.199 8.94737 464.05 9.37932 464.05C9.81859 464.05 10.1792 464.2 10.461 464.501C10.7429 464.798 10.9515 465.242 11.087 465.833C11.2261 466.423 11.2956 467.159 11.2956 468.039ZM8.34155 468.039C8.34155 468.75 8.37632 469.344 8.44588 469.822C8.51543 470.296 8.62707 470.653 8.78082 470.893C8.93456 471.134 9.13406 471.254 9.37932 471.254C9.62458 471.254 9.82408 471.134 9.97783 470.893C10.1316 470.649 10.2432 470.289 10.3128 469.811C10.386 469.334 10.4226 468.743 10.4226 468.039C10.4226 467.336 10.386 466.745 10.3128 466.268C10.2396 465.79 10.1261 465.429 9.97234 465.185C9.82225 464.941 9.62458 464.819 9.37932 464.819C9.13406 464.819 8.93456 464.94 8.78082 465.18C8.62707 465.421 8.51543 465.78 8.44588 466.257C8.37632 466.731 8.34155 467.325 8.34155 468.039Z" fill="black"/>
<path d="M4.54197 467.164C4.95196 467.164 5.30154 467.26 5.59073 467.451C5.87992 467.642 6.10138 467.907 6.25512 468.246C6.40887 468.586 6.48574 468.98 6.48574 469.429C6.48574 469.942 6.39789 470.393 6.22218 470.782C6.05013 471.171 5.79572 471.475 5.45895 471.694C5.12218 471.914 4.70487 472.023 4.20703 472.023C3.9032 472.023 3.63049 471.995 3.38889 471.938C3.1473 471.885 2.93498 471.806 2.75195 471.7L2.75195 470.861C2.95695 470.992 3.17841 471.097 3.41635 471.174C3.65795 471.252 3.89954 471.291 4.14114 471.291C4.47425 471.291 4.74697 471.208 4.95928 471.042C5.17525 470.872 5.33632 470.649 5.44248 470.373C5.54863 470.094 5.60171 469.788 5.60171 469.456C5.60171 468.943 5.48457 468.552 5.2503 468.283C5.01968 468.015 4.68657 467.88 4.25096 467.88C4.06793 467.88 3.88673 467.898 3.70736 467.933C3.528 467.965 3.34863 468.008 3.16926 468.061L2.82333 467.737L3.06493 464.162L6.05745 464.162L6.05745 464.926L3.78973 464.926L3.625 467.27C3.77874 467.235 3.93249 467.208 4.08623 467.191C4.24364 467.173 4.39555 467.164 4.54197 467.164Z" fill="black"/>
<path d="M2 485L11.098 482.966L15.1416 481.61L20.1961 484.322L27.7778 483.644L41.9303 483.644L50.5229 484.322L53.0501 480.932L58.1046 480.932L62.6536 482.288L69.2244 480.254L74.2789 477.445L82.366 478.858L87.4205 478.858L95.5076 482.288L111.176 482.288L116.303 480.742L121.791 480.932L127.351 480.254L137.46 468.051L140.962 466.695L141.938 462.843L145.041 461.271L148.074 461.271L150.601 458.132L154.139 455.17L155.054 452.951L159.08 452.951L160.71 452.009L162.227 452.009L164.615 455.777L166.27 457.661L167.786 455.777L169.303 457.19L171.83 455.17L173.346 452.009L174.863 451.102L175.874 450.424L177.895 453.814L182.95 455.17L186.488 455.847L189.521 457.203L191.542 455.847L192.553 454.492L205.695 468.729L207.211 468.729L214.288 476.186L216.815 480.254L234.505 480.271L236.527 478.898L239.56 480.271L245.625 480.254L250.68 472.797L254.218 467.082L257.246 463.785L260.283 461.949L261.8 459.237L265.338 457.661L271.908 463.785L279.49 454.835L283.028 452.951L290.105 445L293.643 447.034L297.686 447.034L302.561 452.009L305.58 452.951L310.613 457.661L315.142 460.958L321.685 463.785L324.704 464.256L330.24 468.495L333.573 470.085L336.1 472.264L338.122 476.032L347.725 476.032L354.296 474.83L359.856 474.153L364.405 476.864L366.427 478.898L376.03 478.898L379.063 480.932L385.634 481.685L387.656 480.932L391.699 482.966L395.237 482.966L398.776 481.214L400.797 482.966L403.325 480.254L405.852 482.966L407.874 481.214L411.917 482.966L414.444 480.932L418.488 482.966L420.51 481.214L423.037 482.966L432.641 483.644L434.662 481.214L440.222 483.644L442.244 482.966L455.891 484.322L458.418 481.61L460.946 484.322L466 484.322" stroke="black" stroke-width="2" stroke-linecap="round"/>
</svg>
