<svg width="469" height="492" viewBox="0 0 469 492" fill="none" xmlns="http://www.w3.org/2000/svg">
<rect width="469" height="492" fill="white"/>
<path d="M298.743 390.806L303.635 398.699L306.57 393.963L305.592 390.017L302.657 385.281L300.7 387.649L298.743 390.806Z" fill="#4393E3"/>
<path d="M256.254 160.538L258.491 156.624L264.64 153.27L266.877 154.947L264.64 158.301L260.727 160.538L257.932 161.097L256.254 160.538Z" fill="#4393E3"/>
<path d="M269.672 154.947L266.318 151.593L269.672 150.475L273.586 147.12L276.381 148.797L273.027 151.593L269.672 154.947Z" fill="#4393E3"/>
<path d="M328.374 80.0326L335.642 75.0011L337.878 74.442L331.169 84.5051L327.256 86.1823L328.374 80.0326Z" fill="#4393E3"/>
<path d="M336.76 9.03162L328.374 9.59068L335.083 28.5988V45.3707L338.437 49.8432H344.028L343.469 46.4888L351.855 33.6304L353.532 22.4491H346.823L342.91 17.9766H338.996L336.76 14.0632L337.878 11.2679L336.76 9.03162Z" fill="#4393E3"/>
<path d="M313.279 109.663L316.074 102.954L318.87 104.072L316.074 110.222L313.279 109.663Z" fill="#4393E3"/>
<circle cx="303.292" cy="406.525" r="8.94501" fill="#006B5B"/>
<path d="M284.645 404.654C285.195 404.654 285.66 404.789 286.04 405.06C286.424 405.331 286.715 405.715 286.911 406.213C287.108 406.707 287.206 407.292 287.206 407.969V408.952H283.708C283.716 409.594 283.834 410.068 284.061 410.373C284.289 410.675 284.636 410.825 285.103 410.825C285.413 410.825 285.706 410.786 285.981 410.707C286.261 410.624 286.558 410.485 286.872 410.288V411.743C286.579 411.917 286.267 412.044 285.935 412.123C285.603 412.206 285.245 412.247 284.861 412.247C284.188 412.247 283.64 412.096 283.216 411.795C282.793 411.489 282.483 411.057 282.286 410.498C282.089 409.934 281.991 409.266 281.991 408.493C281.991 407.668 282.089 406.971 282.286 406.403C282.487 405.831 282.784 405.396 283.177 405.099C283.57 404.802 284.059 404.654 284.645 404.654ZM284.684 406.023C284.396 406.023 284.166 406.154 283.996 406.416C283.826 406.674 283.734 407.098 283.721 407.687H285.588C285.588 407.342 285.553 407.045 285.483 406.796C285.413 406.547 285.311 406.357 285.175 406.226C285.04 406.091 284.876 406.023 284.684 406.023Z" fill="black"/>
<path d="M280.74 404.778V412.116H278.997V404.778H280.74ZM279.869 401.889C280.196 401.889 280.436 401.976 280.589 402.151C280.742 402.321 280.819 402.57 280.819 402.898C280.819 403.217 280.738 403.461 280.576 403.632C280.419 403.798 280.183 403.881 279.869 403.881C279.563 403.881 279.327 403.798 279.161 403.632C278.995 403.461 278.912 403.217 278.912 402.898C278.912 402.562 278.989 402.311 279.141 402.145C279.299 401.974 279.541 401.889 279.869 401.889Z" fill="black"/>
<path d="M274.181 412.247C273.474 412.247 272.934 411.911 272.563 411.238C272.192 410.565 272.006 409.633 272.006 408.441C272.006 407.244 272.192 406.311 272.563 405.643C272.934 404.975 273.454 404.641 274.122 404.641C274.35 404.641 274.559 404.68 274.751 404.759C274.948 404.837 275.127 404.957 275.289 405.119C275.455 405.276 275.599 405.475 275.721 405.715H275.787C275.773 405.431 275.76 405.189 275.747 404.988C275.739 404.783 275.734 404.61 275.734 404.47V401.922H277.477V412.116H276.081L275.839 411.31H275.734C275.594 411.529 275.448 411.708 275.295 411.847C275.147 411.983 274.983 412.083 274.804 412.149C274.625 412.214 274.417 412.247 274.181 412.247ZM274.699 410.786C275.048 410.786 275.308 410.616 275.479 410.275C275.649 409.934 275.734 409.399 275.734 408.67V408.251C275.734 407.526 275.651 406.997 275.485 406.665C275.324 406.329 275.062 406.161 274.699 406.161C274.385 406.161 274.151 406.353 273.998 406.737C273.85 407.117 273.775 407.681 273.775 408.427C273.775 409.218 273.854 409.81 274.011 410.203C274.168 410.592 274.398 410.786 274.699 410.786Z" fill="black"/>
<path d="M268.849 404.641C269.469 404.641 269.945 404.866 270.277 405.316C270.613 405.761 270.781 406.41 270.781 407.261V412.116H269.039V407.766C269.039 407.25 268.986 406.862 268.881 406.6C268.777 406.333 268.578 406.2 268.285 406.2C267.918 406.2 267.661 406.379 267.512 406.737C267.368 407.095 267.296 407.711 267.296 408.585V412.116H265.553V404.778H266.936L267.119 405.715H267.23C267.34 405.484 267.473 405.289 267.63 405.132C267.787 404.971 267.969 404.848 268.174 404.765C268.379 404.682 268.604 404.641 268.849 404.641Z" fill="black"/>
<path d="M261.878 404.641C262.59 404.641 263.131 404.861 263.503 405.302C263.878 405.739 264.066 406.392 264.066 407.261V412.116H262.788L262.507 411.133H262.467C262.319 411.382 262.16 411.59 261.989 411.756C261.823 411.922 261.633 412.044 261.419 412.123C261.205 412.206 260.954 412.247 260.666 412.247C260.26 412.247 259.93 412.138 259.677 411.919C259.428 411.701 259.246 411.417 259.133 411.068C259.019 410.718 258.962 410.347 258.962 409.954C258.962 409.19 259.174 408.611 259.598 408.218C260.022 407.825 260.624 407.613 261.406 407.582L262.317 407.543V407.248C262.317 406.846 262.253 406.547 262.127 406.351C262.004 406.15 261.801 406.049 261.517 406.049C261.308 406.049 261.079 406.091 260.83 406.174C260.581 406.257 260.308 406.386 260.011 406.56L259.526 405.257C259.858 405.056 260.222 404.903 260.62 404.798C261.017 404.693 261.437 404.641 261.878 404.641ZM262.317 408.709L261.825 408.735C261.454 408.753 261.177 408.858 260.993 409.05C260.814 409.238 260.725 409.513 260.725 409.875C260.725 410.203 260.779 410.448 260.889 410.609C261.002 410.771 261.166 410.852 261.38 410.852C261.655 410.852 261.88 410.718 262.055 410.452C262.229 410.186 262.317 409.827 262.317 409.377V408.709Z" fill="black"/>
<path d="M252.358 402.538H254.881C255.868 402.538 256.606 402.732 257.095 403.121C257.589 403.505 257.835 404.097 257.835 404.896C257.835 405.272 257.783 405.608 257.678 405.905C257.578 406.198 257.431 406.44 257.239 406.632C257.047 406.825 256.816 406.958 256.545 407.032V407.098C256.885 407.189 257.163 407.333 257.377 407.53C257.595 407.726 257.755 407.975 257.855 408.277C257.956 408.578 258.006 408.932 258.006 409.338C258.006 409.906 257.892 410.397 257.665 410.812C257.442 411.227 257.119 411.548 256.696 411.775C256.272 412.002 255.765 412.116 255.176 412.116H252.358V402.538ZM254.199 406.416H254.881C255.252 406.416 255.527 406.309 255.706 406.095C255.89 405.881 255.981 405.567 255.981 405.152C255.981 404.789 255.887 404.514 255.7 404.326C255.512 404.134 255.23 404.038 254.855 404.038H254.199V406.416ZM254.199 407.877V410.57H255.031C255.398 410.57 255.673 410.456 255.857 410.229C256.04 410.002 256.132 409.657 256.132 409.194C256.132 408.91 256.086 408.672 255.994 408.48C255.903 408.283 255.77 408.135 255.595 408.034C255.425 407.93 255.213 407.877 254.959 407.877H254.199Z" fill="black"/>
<path d="M246.095 404.654C246.646 404.654 247.111 404.789 247.491 405.06C247.875 405.331 248.166 405.715 248.362 406.213C248.559 406.707 248.657 407.292 248.657 407.969V408.952H245.158C245.167 409.594 245.285 410.068 245.512 410.373C245.739 410.675 246.087 410.825 246.554 410.825C246.864 410.825 247.157 410.786 247.432 410.707C247.711 410.624 248.008 410.485 248.323 410.288V411.743C248.03 411.917 247.718 412.044 247.386 412.123C247.054 412.206 246.696 412.247 246.311 412.247C245.639 412.247 245.091 412.096 244.667 411.795C244.243 411.489 243.933 411.057 243.737 410.498C243.54 409.934 243.442 409.266 243.442 408.493C243.442 407.668 243.54 406.971 243.737 406.403C243.938 405.831 244.235 405.396 244.628 405.099C245.021 404.802 245.51 404.654 246.095 404.654ZM246.135 406.023C245.846 406.023 245.617 406.154 245.447 406.416C245.276 406.674 245.185 407.098 245.171 407.687H247.039C247.039 407.342 247.004 407.045 246.934 406.796C246.864 406.547 246.761 406.357 246.626 406.226C246.491 406.091 246.327 406.023 246.135 406.023Z" fill="black"/>
<path d="M238.365 412.116V402.538H240.206V410.517H242.754V412.116H238.365Z" fill="black"/>
<path d="M302.098 397.58L300.98 394.785L298.743 390.872L300.98 385.84L295.389 383.604L282.531 384.722L278.617 381.927L276.381 384.722L273.586 381.927H270.79L270.231 380.249H267.436L264.641 371.863L257.373 372.423L256.255 370.186L253.459 374.659L249.546 369.627L246.191 372.423L243.396 370.186L238.924 370.745L227.183 361.241L219.356 357.887H213.207L209.293 351.178L210.971 343.351L207.057 342.233L205.939 338.879L199.23 337.202L196.994 332.729L190.285 336.642L184.135 333.847L177.986 336.642L172.395 333.847L170.718 333.288L165.127 328.816L162.332 329.934L156.741 331.052L155.064 328.257L151.71 331.611H144.442L138.292 334.406V320.43L141.647 315.957L137.733 305.894L138.292 301.981L136.615 297.508L132.143 299.744L131.584 294.713L124.875 287.445L120.402 288.004V282.972L122.08 279.059L112.016 272.35L104.749 274.027L104.189 269.555L91.8901 256.696L94.1264 252.783L90.772 250.547L94.6854 239.366L91.8901 233.775L94.1264 232.098L91.8901 229.861L103.63 220.916L102.512 218.68L94.6854 219.239L107.544 213.09L98.0398 211.412L98.5989 206.381L102.512 208.058L110.898 206.381L120.402 216.444L123.198 215.326L121.52 210.853L130.465 201.349L126.552 199.672L132.702 195.2L136.056 194.081L141.088 193.522L134.379 182.341L143.883 183.459L148.915 175.632L155.623 172.837L159.537 171.719L161.214 168.924L165.686 165.569L167.364 162.774L171.836 168.924V173.396L175.19 175.632V180.105V184.018L180.781 179.546V176.75L177.427 171.16L180.781 166.687L184.135 169.483H186.931L189.167 172.837L191.403 175.632L189.726 180.664L191.962 181.782V184.018H197.553L202.585 182.341L210.971 179.546L219.916 170.601H227.183L232.774 173.396L243.955 171.719L245.632 169.483L245.073 163.892L255.136 162.774L254.018 159.42L256.814 157.742L255.696 155.506L246.191 156.624L245.632 153.829L254.018 151.034L252.341 147.679L256.814 144.884L261.286 140.97L256.814 139.852V135.38L262.404 132.025L261.845 126.994L264.641 127.553L273.586 122.521L281.972 124.758L288.68 113.017H283.649L284.208 109.104L282.531 107.986L288.68 105.19V102.395L294.271 99.0407H295.948L301.539 90.0957L303.216 85.6232L308.247 77.7963V75.001L312.161 72.2057L311.043 67.1741L314.397 64.3788L316.074 50.9613L318.311 46.4888H316.074L312.161 52.0794L310.484 54.8747H309.925L307.688 53.7566L311.602 43.6935H307.688L303.216 46.4888H299.862L307.688 38.1028L303.216 23.0081L300.98 21.331L303.216 11.2678L308.247 13.5041L313.279 12.945L312.161 7.35438L320.547 5.67719L327.256 4L327.815 7.35438L338.996 6.23625L340.673 13.5041L350.177 20.2128L355.209 21.331L352.413 28.5988L353.532 33.0713L346.264 43.6935L343.468 48.166L347.941 52.0794L349.059 58.2291V62.1426L340.673 63.2607L337.878 65.4969L340.673 67.1741L337.319 71.0876L327.256 77.2373L325.019 87.8595L320.547 95.6863L323.342 99.0407L319.429 102.395L316.633 110.781L310.484 124.199H305.452L304.893 138.734L309.366 148.238L308.247 152.711L312.161 156.624L309.366 165.569L306.011 168.924L302.657 170.042L304.334 180.105H300.98L297.066 184.018L294.83 196.318L292.035 189.05L284.767 192.404L287.003 205.263L281.412 206.94L281.972 211.412L286.444 215.326L288.68 217.562L289.798 221.476L292.594 224.83L298.743 232.098L293.712 233.216H288.121L284.208 238.806L280.294 243.838L279.176 255.578L283.09 261.169L286.444 266.76L285.885 271.791L293.153 274.587L285.326 285.209L280.294 286.886L276.94 291.917V295.272L270.79 294.713L265.2 302.54L269.113 309.807L271.908 314.839V318.193L277.499 323.225L280.853 327.138L278.058 329.934L287.562 339.997L286.444 343.351L290.917 347.824V351.178L307.688 357.328L315.515 368.509L309.925 373.541L307.129 376.336V379.131L304.334 385.84L307.129 394.785L305.452 398.139" stroke="#2370D0" stroke-width="2" stroke-linecap="round"/>
<circle cx="94.1497" cy="242.72" r="6.14969" fill="#1E1E1E"/>
<path d="M164.216 240.475C164.649 240.475 165.011 240.591 165.302 240.824C165.594 241.054 165.812 241.372 165.958 241.78C166.103 242.187 166.176 242.655 166.176 243.183V243.887H163.293C163.301 244.528 163.406 245.006 163.61 245.323C163.817 245.636 164.132 245.793 164.554 245.793C164.791 245.793 165.018 245.76 165.237 245.694C165.455 245.625 165.686 245.514 165.93 245.361V246.344C165.705 246.479 165.466 246.579 165.215 246.644C164.964 246.71 164.695 246.743 164.407 246.743C163.876 246.743 163.444 246.613 163.113 246.355C162.782 246.093 162.54 245.729 162.387 245.263C162.238 244.797 162.163 244.257 162.163 243.641C162.163 242.961 162.24 242.386 162.392 241.916C162.545 241.447 162.775 241.09 163.08 240.846C163.386 240.599 163.765 240.475 164.216 240.475ZM164.232 241.392C163.952 241.392 163.732 241.523 163.572 241.785C163.412 242.047 163.322 242.46 163.304 243.025H165.111C165.111 242.712 165.079 242.433 165.013 242.189C164.947 241.942 164.849 241.747 164.718 241.605C164.591 241.463 164.429 241.392 164.232 241.392Z" fill="black"/>
<path d="M159.521 240.464C160.016 240.464 160.392 240.641 160.651 240.994C160.913 241.347 161.044 241.871 161.044 242.566V246.633H159.897V242.861C159.897 242.406 159.845 242.064 159.739 241.834C159.634 241.601 159.452 241.485 159.193 241.485C158.844 241.485 158.593 241.647 158.44 241.971C158.29 242.295 158.216 242.832 158.216 243.581V246.633H157.069V240.579H157.981L158.101 241.403H158.178C158.265 241.206 158.374 241.039 158.505 240.901C158.636 240.759 158.787 240.651 158.958 240.579C159.129 240.502 159.317 240.464 159.521 240.464Z" fill="black"/>
<path d="M154.018 240.475C154.451 240.475 154.813 240.591 155.104 240.824C155.395 241.054 155.614 241.372 155.759 241.78C155.905 242.187 155.978 242.655 155.978 243.183V243.887H153.095C153.102 244.528 153.208 245.006 153.412 245.323C153.619 245.636 153.934 245.793 154.356 245.793C154.593 245.793 154.82 245.76 155.039 245.694C155.257 245.625 155.488 245.514 155.732 245.361V246.344C155.506 246.479 155.268 246.579 155.017 246.644C154.766 246.71 154.496 246.743 154.209 246.743C153.677 246.743 153.246 246.613 152.915 246.355C152.584 246.093 152.342 245.729 152.189 245.263C152.039 244.797 151.965 244.257 151.965 243.641C151.965 242.961 152.041 242.386 152.194 241.916C152.347 241.447 152.576 241.09 152.882 240.846C153.188 240.599 153.566 240.475 154.018 240.475ZM154.034 241.392C153.754 241.392 153.534 241.523 153.373 241.785C153.213 242.047 153.124 242.46 153.106 243.025H154.913C154.913 242.712 154.88 242.433 154.815 242.189C154.749 241.942 154.651 241.747 154.52 241.605C154.393 241.463 154.231 241.392 154.034 241.392Z" fill="black"/>
<path d="M148.377 246.743C147.795 246.743 147.353 246.471 147.051 245.929C146.749 245.383 146.598 244.61 146.598 243.609C146.598 242.611 146.749 241.838 147.051 241.288C147.357 240.739 147.786 240.464 148.339 240.464C148.529 240.464 148.707 240.5 148.874 240.573C149.042 240.642 149.193 240.744 149.327 240.879C149.466 241.014 149.584 241.179 149.682 241.376H149.726C149.719 241.172 149.711 240.995 149.704 240.846C149.697 240.693 149.693 240.559 149.693 240.442V238.138H150.834V246.633H149.917L149.759 245.891H149.693C149.584 246.077 149.466 246.233 149.338 246.36C149.211 246.488 149.069 246.582 148.913 246.644C148.756 246.71 148.578 246.743 148.377 246.743ZM148.683 245.776C149.018 245.776 149.269 245.618 149.437 245.301C149.608 244.981 149.693 244.495 149.693 243.844V243.467C149.693 242.783 149.611 242.28 149.448 241.96C149.287 241.636 149.031 241.474 148.678 241.474C148.365 241.474 148.134 241.656 147.984 242.02C147.835 242.38 147.761 242.908 147.761 243.603C147.761 244.324 147.837 244.866 147.99 245.23C148.143 245.594 148.374 245.776 148.683 245.776Z" fill="black"/>
<path d="M143.808 240.464C144.383 240.464 144.807 240.644 145.08 241.004C145.353 241.365 145.49 241.893 145.49 242.588V246.633H144.638L144.458 245.798H144.43C144.321 246.002 144.199 246.175 144.065 246.317C143.93 246.459 143.775 246.564 143.6 246.633C143.429 246.706 143.229 246.743 143 246.743C142.676 246.743 142.412 246.657 142.208 246.486C142.004 246.311 141.855 246.084 141.761 245.803C141.666 245.523 141.619 245.225 141.619 244.908C141.619 244.293 141.792 243.822 142.137 243.494C142.487 243.166 142.982 242.988 143.622 242.959L144.343 242.921V242.593C144.343 242.186 144.285 241.885 144.168 241.692C144.052 241.499 143.861 241.403 143.595 241.403C143.424 241.403 143.24 241.436 143.044 241.501C142.851 241.563 142.638 241.661 142.405 241.796L142.072 240.939C142.323 240.782 142.594 240.664 142.885 240.584C143.18 240.504 143.488 240.464 143.808 240.464ZM144.348 243.718L143.868 243.745C143.5 243.767 143.227 243.871 143.049 244.056C142.871 244.242 142.782 244.511 142.782 244.864C142.782 245.188 142.838 245.429 142.951 245.585C143.067 245.742 143.229 245.82 143.437 245.82C143.717 245.82 143.939 245.685 144.103 245.416C144.267 245.143 144.348 244.772 144.348 244.302V243.718Z" fill="black"/>
<path d="M140.576 240.579V246.633H139.435V240.579H140.576ZM140.014 238.247C140.236 238.247 140.398 238.311 140.499 238.439C140.601 238.566 140.652 238.746 140.652 238.979C140.652 239.205 140.598 239.381 140.489 239.509C140.383 239.632 140.225 239.694 140.014 239.694C139.806 239.694 139.644 239.632 139.528 239.509C139.415 239.381 139.358 239.205 139.358 238.979C139.358 238.739 139.413 238.557 139.522 238.433C139.631 238.309 139.795 238.247 140.014 238.247Z" fill="black"/>
<path d="M135.209 238.138V240.448C135.209 240.564 135.205 240.702 135.198 240.863C135.194 241.019 135.185 241.197 135.171 241.398H135.22C135.373 241.085 135.56 240.853 135.782 240.704C136.008 240.551 136.263 240.475 136.547 240.475C137.111 240.475 137.544 240.744 137.846 241.283C138.152 241.818 138.305 242.588 138.305 243.592C138.305 244.258 138.235 244.826 138.097 245.296C137.962 245.765 137.764 246.124 137.502 246.371C137.24 246.619 136.922 246.743 136.547 246.743C136.263 246.743 136.015 246.679 135.804 246.551C135.593 246.42 135.398 246.204 135.22 245.902H135.154L134.991 246.633H134.062V238.138H135.209ZM136.214 241.474C135.952 241.474 135.748 241.558 135.602 241.725C135.457 241.889 135.355 242.12 135.296 242.419C135.238 242.713 135.209 243.061 135.209 243.461V243.74C135.209 244.431 135.291 244.943 135.455 245.274C135.622 245.602 135.877 245.765 136.219 245.765C136.525 245.765 136.754 245.589 136.907 245.236C137.06 244.879 137.136 244.328 137.136 243.581C137.136 242.879 137.062 242.353 136.912 242.004C136.767 241.651 136.534 241.474 136.214 241.474Z" fill="black"/>
<path d="M129.848 238.138V240.448C129.848 240.564 129.844 240.702 129.837 240.863C129.833 241.019 129.824 241.197 129.809 241.398H129.859C130.011 241.085 130.199 240.853 130.421 240.704C130.647 240.551 130.901 240.475 131.185 240.475C131.749 240.475 132.183 240.744 132.485 241.283C132.79 241.818 132.943 242.588 132.943 243.592C132.943 244.258 132.874 244.826 132.736 245.296C132.601 245.765 132.403 246.124 132.141 246.371C131.879 246.619 131.56 246.743 131.185 246.743C130.901 246.743 130.654 246.679 130.443 246.551C130.232 246.42 130.037 246.204 129.859 245.902H129.793L129.629 246.633H128.701V238.138H129.848ZM130.852 241.474C130.59 241.474 130.386 241.558 130.241 241.725C130.095 241.889 129.993 242.12 129.935 242.419C129.877 242.713 129.848 243.061 129.848 243.461V243.74C129.848 244.431 129.93 244.943 130.093 245.274C130.261 245.602 130.516 245.765 130.858 245.765C131.163 245.765 131.393 245.589 131.546 245.236C131.698 244.879 131.775 244.328 131.775 243.581C131.775 242.879 131.7 242.353 131.551 242.004C131.405 241.651 131.173 241.474 130.852 241.474Z" fill="black"/>
<path d="M127.577 243.592C127.577 244.044 127.535 244.46 127.451 244.843C127.367 245.225 127.238 245.558 127.064 245.842C126.892 246.126 126.669 246.348 126.392 246.508C126.119 246.664 125.791 246.743 125.409 246.743C125.045 246.743 124.729 246.664 124.459 246.508C124.19 246.351 123.966 246.133 123.788 245.853C123.613 245.569 123.482 245.236 123.395 244.854C123.307 244.468 123.264 244.047 123.264 243.592C123.264 242.955 123.338 242.404 123.488 241.938C123.64 241.469 123.877 241.106 124.197 240.852C124.518 240.593 124.927 240.464 125.426 240.464C125.873 240.464 126.257 240.584 126.578 240.824C126.902 241.065 127.149 241.418 127.32 241.883C127.491 242.346 127.577 242.915 127.577 243.592ZM124.427 243.603C124.427 244.076 124.461 244.473 124.53 244.793C124.603 245.114 124.712 245.356 124.858 245.52C125.007 245.68 125.196 245.76 125.426 245.76C125.655 245.76 125.841 245.68 125.983 245.52C126.128 245.359 126.234 245.119 126.299 244.799C126.368 244.479 126.403 244.076 126.403 243.592C126.403 243.119 126.368 242.724 126.299 242.408C126.234 242.087 126.128 241.849 125.983 241.692C125.841 241.532 125.653 241.452 125.42 241.452C125.071 241.452 124.818 241.631 124.661 241.987C124.505 242.34 124.427 242.879 124.427 243.603Z" fill="black"/>
<path d="M119.682 246.743C119.1 246.743 118.658 246.471 118.355 245.929C118.053 245.383 117.902 244.61 117.902 243.609C117.902 242.611 118.053 241.838 118.355 241.288C118.661 240.739 119.091 240.464 119.644 240.464C119.833 240.464 120.012 240.5 120.179 240.573C120.346 240.642 120.497 240.744 120.632 240.879C120.77 241.014 120.889 241.179 120.987 241.376H121.031C121.023 241.172 121.016 240.995 121.009 240.846C121.002 240.693 120.998 240.559 120.998 240.442V238.138H122.139V246.633H121.222L121.063 245.891H120.998C120.889 246.077 120.77 246.233 120.643 246.36C120.516 246.488 120.374 246.582 120.217 246.644C120.061 246.71 119.882 246.743 119.682 246.743ZM119.988 245.776C120.323 245.776 120.574 245.618 120.741 245.301C120.912 244.981 120.998 244.495 120.998 243.844V243.467C120.998 242.783 120.916 242.28 120.752 241.96C120.592 241.636 120.336 241.474 119.982 241.474C119.669 241.474 119.438 241.656 119.289 242.02C119.14 242.38 119.065 242.908 119.065 243.603C119.065 244.324 119.142 244.866 119.295 245.23C119.447 245.594 119.679 245.776 119.988 245.776Z" fill="black"/>
<path d="M116.789 246.633H115.642V238.138H116.789V246.633Z" fill="black"/>
<path d="M112.612 240.464C113.187 240.464 113.611 240.644 113.884 241.004C114.157 241.365 114.293 241.893 114.293 242.588V246.633H113.442L113.261 245.798H113.234C113.125 246.002 113.003 246.175 112.868 246.317C112.734 246.459 112.579 246.564 112.404 246.633C112.233 246.706 112.033 246.743 111.804 246.743C111.48 246.743 111.216 246.657 111.012 246.486C110.808 246.311 110.659 246.084 110.564 245.803C110.47 245.523 110.422 245.225 110.422 244.908C110.422 244.293 110.595 243.822 110.941 243.494C111.29 243.166 111.785 242.988 112.426 242.959L113.147 242.921V242.593C113.147 242.186 113.088 241.885 112.972 241.692C112.856 241.499 112.664 241.403 112.399 241.403C112.228 241.403 112.044 241.436 111.847 241.501C111.654 241.563 111.441 241.661 111.209 241.796L110.876 240.939C111.127 240.782 111.398 240.664 111.689 240.584C111.984 240.504 112.291 240.464 112.612 240.464ZM113.152 243.718L112.672 243.745C112.304 243.767 112.031 243.871 111.853 244.056C111.674 244.242 111.585 244.511 111.585 244.864C111.585 245.188 111.642 245.429 111.755 245.585C111.871 245.742 112.033 245.82 112.24 245.82C112.521 245.82 112.743 245.685 112.906 245.416C113.07 245.143 113.152 244.772 113.152 244.302V243.718Z" fill="black"/>
<path d="M110.062 238.651L108.102 246.633H106.716L104.772 238.651H106.028L107.125 243.658C107.161 243.818 107.198 243.996 107.234 244.193C107.271 244.389 107.303 244.586 107.333 244.783C107.362 244.975 107.387 245.152 107.409 245.312C107.431 245.152 107.456 244.975 107.485 244.783C107.518 244.59 107.553 244.395 107.589 244.198C107.629 244.002 107.667 243.82 107.704 243.652L108.812 238.651H110.062Z" fill="black"/>
<circle cx="316.107" cy="147.679" r="6.14969" fill="#1E1E1E"/>
<path d="M306.161 148.552C306.161 149.003 306.119 149.42 306.035 149.802C305.951 150.184 305.822 150.517 305.648 150.801C305.476 151.085 305.253 151.307 304.976 151.467C304.703 151.624 304.375 151.702 303.993 151.702C303.629 151.702 303.313 151.624 303.043 151.467C302.774 151.311 302.55 151.092 302.372 150.812C302.197 150.528 302.066 150.195 301.979 149.813C301.891 149.427 301.848 149.007 301.848 148.552C301.848 147.915 301.922 147.363 302.071 146.897C302.224 146.428 302.461 146.066 302.781 145.811C303.102 145.552 303.511 145.423 304.01 145.423C304.457 145.423 304.841 145.543 305.162 145.784C305.486 146.024 305.733 146.377 305.904 146.843C306.075 147.305 306.161 147.875 306.161 148.552ZM303.011 148.563C303.011 149.036 303.045 149.432 303.114 149.753C303.187 150.073 303.296 150.315 303.442 150.479C303.591 150.639 303.78 150.719 304.01 150.719C304.239 150.719 304.425 150.639 304.567 150.479C304.712 150.319 304.818 150.078 304.883 149.758C304.952 149.438 304.987 149.036 304.987 148.552C304.987 148.078 304.952 147.684 304.883 147.367C304.818 147.047 304.712 146.808 304.567 146.652C304.425 146.492 304.237 146.411 304.004 146.411C303.655 146.411 303.402 146.59 303.245 146.947C303.089 147.3 303.011 147.838 303.011 148.563Z" fill="black"/>
<path d="M300.625 150.692C300.719 150.692 300.818 150.681 300.92 150.659C301.025 150.634 301.129 150.597 301.231 150.55V151.478C301.096 151.547 300.947 151.602 300.783 151.642C300.623 151.682 300.45 151.702 300.264 151.702C299.959 151.702 299.709 151.638 299.516 151.511C299.324 151.38 299.182 151.185 299.091 150.927C299.003 150.668 298.96 150.342 298.96 149.949V146.493H298.381V145.871L299.036 145.571L299.32 144.211H300.106V145.538H301.16V146.493H300.106V149.873C300.106 150.149 300.142 150.355 300.215 150.49C300.292 150.624 300.428 150.692 300.625 150.692Z" fill="black"/>
<path d="M295.848 145.434C296.281 145.434 296.643 145.551 296.934 145.784C297.225 146.013 297.444 146.331 297.589 146.739C297.735 147.147 297.808 147.614 297.808 148.142V148.846H294.925C294.932 149.487 295.038 149.966 295.242 150.282C295.449 150.595 295.764 150.752 296.186 150.752C296.423 150.752 296.65 150.719 296.869 150.654C297.087 150.584 297.318 150.473 297.562 150.321V151.303C297.336 151.438 297.098 151.538 296.847 151.604C296.596 151.669 296.326 151.702 296.039 151.702C295.507 151.702 295.076 151.573 294.745 151.314C294.414 151.052 294.172 150.688 294.019 150.222C293.87 149.756 293.795 149.216 293.795 148.601C293.795 147.92 293.871 147.345 294.024 146.876C294.177 146.406 294.406 146.049 294.712 145.805C295.018 145.558 295.396 145.434 295.848 145.434ZM295.864 146.351C295.584 146.351 295.364 146.482 295.203 146.745C295.043 147.007 294.954 147.42 294.936 147.984H296.743C296.743 147.671 296.71 147.392 296.645 147.149C296.579 146.901 296.481 146.706 296.35 146.564C296.223 146.422 296.061 146.351 295.864 146.351Z" fill="black"/>
<path d="M291.153 145.423C291.648 145.423 292.024 145.6 292.283 145.953C292.545 146.306 292.676 146.83 292.676 147.525V151.593H291.529V147.82C291.529 147.365 291.476 147.023 291.371 146.794C291.265 146.561 291.083 146.444 290.825 146.444C290.476 146.444 290.224 146.606 290.072 146.93C289.922 147.254 289.848 147.791 289.848 148.541V151.593H288.701V145.538H289.613L289.733 146.362H289.809C289.897 146.166 290.006 145.998 290.137 145.86C290.268 145.718 290.419 145.611 290.59 145.538C290.761 145.461 290.949 145.423 291.153 145.423Z" fill="black"/>
<path d="M285.649 145.434C286.082 145.434 286.444 145.551 286.735 145.784C287.027 146.013 287.245 146.331 287.391 146.739C287.536 147.147 287.609 147.614 287.609 148.142V148.846H284.726C284.734 149.487 284.839 149.966 285.043 150.282C285.25 150.595 285.565 150.752 285.987 150.752C286.224 150.752 286.452 150.719 286.67 150.654C286.888 150.584 287.119 150.473 287.363 150.321V151.303C287.138 151.438 286.899 151.538 286.648 151.604C286.397 151.669 286.128 151.702 285.84 151.702C285.309 151.702 284.877 151.573 284.546 151.314C284.215 151.052 283.973 150.688 283.82 150.222C283.671 149.756 283.596 149.216 283.596 148.601C283.596 147.92 283.673 147.345 283.825 146.876C283.978 146.406 284.208 146.049 284.513 145.805C284.819 145.558 285.198 145.434 285.649 145.434ZM285.665 146.351C285.385 146.351 285.165 146.482 285.005 146.745C284.845 147.007 284.755 147.42 284.737 147.984H286.544C286.544 147.671 286.512 147.392 286.446 147.149C286.381 146.901 286.282 146.706 286.151 146.564C286.024 146.422 285.862 146.351 285.665 146.351Z" fill="black"/>
<path d="M283.143 143.611L281.183 151.593H279.796L277.853 143.611H279.108L280.206 148.617C280.242 148.777 280.278 148.956 280.315 149.152C280.351 149.349 280.384 149.545 280.413 149.742C280.442 149.935 280.468 150.111 280.49 150.271C280.511 150.111 280.537 149.935 280.566 149.742C280.599 149.549 280.633 149.354 280.67 149.158C280.71 148.961 280.748 148.779 280.784 148.612L281.893 143.611H283.143Z" fill="black"/>
<path d="M275.369 148.552C275.369 149.003 275.327 149.42 275.243 149.802C275.159 150.184 275.03 150.517 274.856 150.801C274.684 151.085 274.461 151.307 274.184 151.467C273.911 151.624 273.583 151.702 273.201 151.702C272.837 151.702 272.521 151.624 272.251 151.467C271.982 151.311 271.758 151.092 271.58 150.812C271.405 150.528 271.274 150.195 271.187 149.813C271.099 149.427 271.056 149.007 271.056 148.552C271.056 147.915 271.13 147.363 271.28 146.897C271.432 146.428 271.669 146.066 271.989 145.811C272.31 145.552 272.719 145.423 273.218 145.423C273.665 145.423 274.049 145.543 274.37 145.784C274.694 146.024 274.941 146.377 275.112 146.843C275.283 147.305 275.369 147.875 275.369 148.552ZM272.219 148.563C272.219 149.036 272.253 149.432 272.322 149.753C272.395 150.073 272.504 150.315 272.65 150.479C272.799 150.639 272.988 150.719 273.218 150.719C273.447 150.719 273.633 150.639 273.775 150.479C273.92 150.319 274.026 150.078 274.091 149.758C274.16 149.438 274.195 149.036 274.195 148.552C274.195 148.078 274.16 147.684 274.091 147.367C274.026 147.047 273.92 146.808 273.775 146.652C273.633 146.492 273.445 146.411 273.212 146.411C272.863 146.411 272.61 146.59 272.453 146.947C272.297 147.3 272.219 147.838 272.219 148.563Z" fill="black"/>
<path d="M269.925 145.538V151.593H268.784V145.538H269.925ZM269.363 143.207C269.585 143.207 269.747 143.27 269.849 143.398C269.951 143.525 270.002 143.705 270.002 143.938C270.002 144.164 269.947 144.34 269.838 144.468C269.733 144.592 269.574 144.653 269.363 144.653C269.156 144.653 268.994 144.592 268.877 144.468C268.764 144.34 268.708 144.164 268.708 143.938C268.708 143.698 268.763 143.516 268.872 143.392C268.981 143.269 269.145 143.207 269.363 143.207Z" fill="black"/>
<path d="M267.48 145.429C267.56 145.429 267.64 145.436 267.72 145.451C267.8 145.462 267.889 145.482 267.987 145.511L267.856 146.717C267.787 146.688 267.713 146.668 267.632 146.657C267.552 146.646 267.467 146.641 267.376 146.641C267.208 146.641 267.057 146.686 266.923 146.777C266.792 146.865 266.679 146.992 266.584 147.159C266.49 147.323 266.417 147.516 266.366 147.738C266.319 147.96 266.297 148.204 266.3 148.47V151.593H265.154V145.538H266.038L266.202 146.57H266.262C266.346 146.359 266.446 146.168 266.562 145.997C266.679 145.822 266.814 145.684 266.966 145.582C267.119 145.48 267.29 145.429 267.48 145.429Z" fill="black"/>
<path d="M264.024 148.552C264.024 149.003 263.982 149.42 263.898 149.802C263.814 150.184 263.685 150.517 263.51 150.801C263.339 151.085 263.115 151.307 262.839 151.467C262.566 151.624 262.238 151.702 261.856 151.702C261.492 151.702 261.175 151.624 260.906 151.467C260.637 151.311 260.413 151.092 260.235 150.812C260.06 150.528 259.929 150.195 259.841 149.813C259.754 149.427 259.71 149.007 259.71 148.552C259.71 147.915 259.785 147.363 259.934 146.897C260.087 146.428 260.324 146.066 260.644 145.811C260.964 145.552 261.374 145.423 261.872 145.423C262.32 145.423 262.704 145.543 263.024 145.784C263.348 146.024 263.596 146.377 263.767 146.843C263.938 147.305 264.024 147.875 264.024 148.552ZM260.873 148.563C260.873 149.036 260.908 149.432 260.977 149.753C261.05 150.073 261.159 150.315 261.305 150.479C261.454 150.639 261.643 150.719 261.872 150.719C262.102 150.719 262.287 150.639 262.429 150.479C262.575 150.319 262.68 150.078 262.746 149.758C262.815 149.438 262.85 149.036 262.85 148.552C262.85 148.078 262.815 147.684 262.746 147.367C262.68 147.047 262.575 146.808 262.429 146.652C262.287 146.492 262.1 146.411 261.867 146.411C261.518 146.411 261.265 146.59 261.108 146.947C260.952 147.3 260.873 147.838 260.873 148.563Z" fill="black"/>
<path d="M258.488 150.692C258.582 150.692 258.68 150.681 258.782 150.659C258.888 150.634 258.992 150.597 259.094 150.55V151.478C258.959 151.547 258.81 151.602 258.646 151.642C258.486 151.682 258.313 151.702 258.127 151.702C257.821 151.702 257.572 151.638 257.379 151.511C257.186 151.38 257.044 151.185 256.953 150.927C256.866 150.668 256.822 150.342 256.822 149.949V146.493H256.244V145.871L256.899 145.571L257.183 144.211H257.969V145.538H259.023V146.493H257.969V149.873C257.969 150.149 258.005 150.355 258.078 150.49C258.155 150.624 258.291 150.692 258.488 150.692Z" fill="black"/>
<path d="M255.299 150.692C255.394 150.692 255.492 150.681 255.594 150.659C255.699 150.634 255.803 150.597 255.905 150.55V151.478C255.77 151.547 255.621 151.602 255.457 151.642C255.297 151.682 255.124 151.702 254.939 151.702C254.633 151.702 254.384 151.638 254.191 151.511C253.998 151.38 253.856 151.185 253.765 150.927C253.678 150.668 253.634 150.342 253.634 149.949V146.493H253.055V145.871L253.71 145.571L253.994 144.211H254.78V145.538H255.834V146.493H254.78V149.873C254.78 150.149 254.817 150.355 254.89 150.49C254.966 150.624 255.103 150.692 255.299 150.692Z" fill="black"/>
<path d="M252.203 145.538V151.593H251.062V145.538H252.203ZM251.641 143.207C251.863 143.207 252.025 143.27 252.127 143.398C252.229 143.525 252.28 143.705 252.28 143.938C252.28 144.164 252.225 144.34 252.116 144.468C252.01 144.592 251.852 144.653 251.641 144.653C251.434 144.653 251.272 144.592 251.155 144.468C251.042 144.34 250.986 144.164 250.986 143.938C250.986 143.698 251.04 143.516 251.15 143.392C251.259 143.269 251.423 143.207 251.641 143.207Z" fill="black"/>
<path d="M250.364 143.611L248.404 151.593H247.017L245.073 143.611H246.329L247.426 148.617C247.463 148.777 247.499 148.956 247.536 149.152C247.572 149.349 247.605 149.545 247.634 149.742C247.663 149.935 247.688 150.111 247.71 150.271C247.732 150.111 247.758 149.935 247.787 149.742C247.819 149.549 247.854 149.354 247.89 149.158C247.93 148.961 247.969 148.779 248.005 148.612L249.113 143.611H250.364Z" fill="black"/>
<circle cx="286.72" cy="322.926" r="6.14969" fill="#1E1E1E"/>
<path d="M368.146 320.67C368.721 320.67 369.145 320.85 369.418 321.21C369.691 321.571 369.828 322.098 369.828 322.793V326.839H368.976L368.796 326.004H368.769C368.66 326.208 368.538 326.38 368.403 326.522C368.268 326.664 368.114 326.77 367.939 326.839C367.768 326.912 367.568 326.948 367.338 326.948C367.014 326.948 366.75 326.863 366.547 326.692C366.343 326.517 366.194 326.289 366.099 326.009C366.004 325.729 365.957 325.43 365.957 325.114C365.957 324.499 366.13 324.027 366.476 323.7C366.825 323.372 367.32 323.194 367.961 323.165L368.681 323.126V322.799C368.681 322.391 368.623 322.091 368.507 321.898C368.39 321.705 368.199 321.609 367.933 321.609C367.762 321.609 367.579 321.641 367.382 321.707C367.189 321.769 366.976 321.867 366.743 322.002L366.41 321.145C366.661 320.988 366.932 320.87 367.224 320.79C367.518 320.71 367.826 320.67 368.146 320.67ZM368.687 323.924L368.206 323.951C367.839 323.973 367.566 324.076 367.387 324.262C367.209 324.448 367.12 324.717 367.12 325.07C367.12 325.394 367.176 325.634 367.289 325.791C367.406 325.947 367.568 326.026 367.775 326.026C368.055 326.026 368.277 325.891 368.441 325.622C368.605 325.349 368.687 324.977 368.687 324.508V323.924Z" fill="black"/>
<path d="M364.931 326.839H363.784V318.344H364.931V326.839Z" fill="black"/>
<path d="M362.414 320.784V326.839H361.508L361.382 326.02H361.311C361.224 326.217 361.115 326.384 360.984 326.522C360.856 326.661 360.707 326.766 360.536 326.839C360.369 326.912 360.181 326.948 359.974 326.948C359.621 326.948 359.329 326.861 359.1 326.686C358.874 326.508 358.707 326.255 358.598 325.927C358.492 325.596 358.439 325.203 358.439 324.748V320.784H359.586V324.448C359.586 324.946 359.639 325.318 359.744 325.562C359.853 325.802 360.025 325.922 360.257 325.922C360.52 325.922 360.723 325.849 360.869 325.703C361.015 325.554 361.116 325.332 361.175 325.037C361.237 324.743 361.268 324.379 361.268 323.945V320.784H362.414Z" fill="black"/>
<path d="M357.086 320.784V326.839H355.945V320.784H357.086ZM356.523 318.453C356.745 318.453 356.907 318.517 357.009 318.644C357.111 318.772 357.162 318.952 357.162 319.185C357.162 319.41 357.107 319.587 356.998 319.714C356.893 319.838 356.734 319.9 356.523 319.9C356.316 319.9 356.154 319.838 356.037 319.714C355.925 319.587 355.868 319.41 355.868 319.185C355.868 318.944 355.923 318.763 356.032 318.639C356.141 318.515 356.305 318.453 356.523 318.453Z" fill="black"/>
<path d="M354.64 320.675C354.72 320.675 354.8 320.682 354.88 320.697C354.96 320.708 355.049 320.728 355.147 320.757L355.016 321.964C354.947 321.935 354.873 321.914 354.793 321.904C354.713 321.893 354.627 321.887 354.536 321.887C354.369 321.887 354.218 321.933 354.083 322.024C353.952 322.111 353.839 322.238 353.744 322.406C353.65 322.57 353.577 322.763 353.526 322.985C353.479 323.207 353.457 323.45 353.46 323.716V326.839H352.314V320.784H353.198L353.362 321.816H353.422C353.506 321.605 353.606 321.414 353.723 321.243C353.839 321.068 353.974 320.93 354.127 320.828C354.279 320.726 354.45 320.675 354.64 320.675Z" fill="black"/>
<path d="M348.94 318.857C349.737 318.857 350.326 319.057 350.709 319.458C351.094 319.854 351.287 320.455 351.287 321.259C351.287 321.667 351.238 322.031 351.14 322.351C351.042 322.672 350.892 322.945 350.692 323.17C350.496 323.392 350.248 323.561 349.95 323.678C349.651 323.794 349.298 323.853 348.891 323.853H348.41V326.839H347.209V318.857H348.94ZM348.863 319.889H348.41V322.815H348.776C349.074 322.815 349.32 322.764 349.513 322.662C349.706 322.557 349.848 322.391 349.939 322.166C350.033 321.936 350.081 321.638 350.081 321.27C350.081 320.783 349.981 320.431 349.78 320.217C349.584 319.998 349.278 319.889 348.863 319.889Z" fill="black"/>
<path d="M342.05 320.67C342.625 320.67 343.049 320.85 343.322 321.21C343.595 321.571 343.731 322.098 343.731 322.793V326.839H342.88L342.699 326.004H342.672C342.563 326.208 342.441 326.38 342.306 326.522C342.172 326.664 342.017 326.77 341.842 326.839C341.671 326.912 341.471 326.948 341.242 326.948C340.918 326.948 340.654 326.863 340.45 326.692C340.246 326.517 340.097 326.289 340.002 326.009C339.908 325.729 339.86 325.43 339.86 325.114C339.86 324.499 340.033 324.027 340.379 323.7C340.728 323.372 341.223 323.194 341.864 323.165L342.585 323.126V322.799C342.585 322.391 342.526 322.091 342.41 321.898C342.294 321.705 342.102 321.609 341.837 321.609C341.666 321.609 341.482 321.641 341.285 321.707C341.092 321.769 340.879 321.867 340.647 322.002L340.313 321.145C340.565 320.988 340.836 320.87 341.127 320.79C341.422 320.71 341.729 320.67 342.05 320.67ZM342.59 323.924L342.11 323.951C341.742 323.973 341.469 324.076 341.291 324.262C341.112 324.448 341.023 324.717 341.023 325.07C341.023 325.394 341.08 325.634 341.192 325.791C341.309 325.947 341.471 326.026 341.678 326.026C341.959 326.026 342.181 325.891 342.344 325.622C342.508 325.349 342.59 324.977 342.59 324.508V323.924Z" fill="black"/>
<path d="M338.834 326.839H337.688V318.344H338.834V326.839Z" fill="black"/>
<path d="M336.334 326.839H335.187V318.344H336.334V326.839Z" fill="black"/>
<path d="M332.135 320.681C332.568 320.681 332.93 320.797 333.221 321.03C333.512 321.259 333.731 321.578 333.876 321.985C334.022 322.393 334.095 322.861 334.095 323.389V324.093H331.212C331.219 324.733 331.325 325.212 331.529 325.529C331.736 325.842 332.051 325.998 332.473 325.998C332.71 325.998 332.937 325.965 333.156 325.9C333.374 325.831 333.605 325.72 333.849 325.567V326.55C333.623 326.684 333.385 326.784 333.134 326.85C332.883 326.915 332.613 326.948 332.326 326.948C331.795 326.948 331.363 326.819 331.032 326.561C330.701 326.299 330.459 325.935 330.306 325.469C330.157 325.003 330.082 324.462 330.082 323.847C330.082 323.167 330.158 322.591 330.311 322.122C330.464 321.652 330.694 321.296 330.999 321.052C331.305 320.804 331.684 320.681 332.135 320.681ZM332.151 321.598C331.871 321.598 331.651 321.729 331.491 321.991C331.33 322.253 331.241 322.666 331.223 323.23H333.03C333.03 322.917 332.997 322.639 332.932 322.395C332.866 322.147 332.768 321.953 332.637 321.811C332.51 321.669 332.348 321.598 332.151 321.598Z" fill="black"/>
<path d="M326.495 326.948C325.913 326.948 325.471 326.677 325.168 326.135C324.866 325.589 324.715 324.815 324.715 323.814C324.715 322.817 324.866 322.044 325.168 321.494C325.474 320.945 325.904 320.67 326.457 320.67C326.646 320.67 326.825 320.706 326.992 320.779C327.159 320.848 327.31 320.95 327.445 321.085C327.583 321.219 327.702 321.385 327.8 321.581H327.844C327.836 321.378 327.829 321.201 327.822 321.052C327.815 320.899 327.811 320.764 327.811 320.648V318.344H328.952V326.839H328.035L327.876 326.097H327.811C327.702 326.282 327.583 326.439 327.456 326.566C327.329 326.693 327.187 326.788 327.03 326.85C326.874 326.916 326.695 326.948 326.495 326.948ZM326.801 325.982C327.136 325.982 327.387 325.824 327.554 325.507C327.725 325.187 327.811 324.701 327.811 324.049V323.673C327.811 322.988 327.729 322.486 327.565 322.166C327.405 321.842 327.148 321.68 326.795 321.68C326.482 321.68 326.251 321.862 326.102 322.226C325.953 322.586 325.878 323.114 325.878 323.809C325.878 324.53 325.955 325.072 326.108 325.436C326.26 325.8 326.492 325.982 326.801 325.982Z" fill="black"/>
<path d="M319.862 320.681C320.295 320.681 320.657 320.797 320.948 321.03C321.24 321.259 321.458 321.578 321.604 321.985C321.749 322.393 321.822 322.861 321.822 323.389V324.093H318.939C318.946 324.733 319.052 325.212 319.256 325.529C319.463 325.842 319.778 325.998 320.2 325.998C320.437 325.998 320.664 325.965 320.883 325.9C321.101 325.831 321.332 325.72 321.576 325.567V326.55C321.351 326.684 321.112 326.784 320.861 326.85C320.61 326.915 320.341 326.948 320.053 326.948C319.522 326.948 319.09 326.819 318.759 326.561C318.428 326.299 318.186 325.935 318.033 325.469C317.884 325.003 317.809 324.462 317.809 323.847C317.809 323.167 317.886 322.591 318.038 322.122C318.191 321.652 318.421 321.296 318.726 321.052C319.032 320.804 319.411 320.681 319.862 320.681ZM319.878 321.598C319.598 321.598 319.378 321.729 319.218 321.991C319.058 322.253 318.968 322.666 318.95 323.23H320.757C320.757 322.917 320.725 322.639 320.659 322.395C320.593 322.147 320.495 321.953 320.364 321.811C320.237 321.669 320.075 321.598 319.878 321.598Z" fill="black"/>
<path d="M316.581 325.938C316.675 325.938 316.774 325.927 316.876 325.905C316.981 325.88 317.085 325.844 317.187 325.796V326.724C317.052 326.794 316.903 326.848 316.739 326.888C316.579 326.928 316.406 326.948 316.22 326.948C315.915 326.948 315.665 326.885 315.473 326.757C315.28 326.626 315.138 326.431 315.047 326.173C314.959 325.915 314.916 325.589 314.916 325.196V321.74H314.337V321.117L314.992 320.817L315.276 319.458H316.062V320.784H317.116V321.74H316.062V325.119C316.062 325.396 316.099 325.602 316.171 325.736C316.248 325.871 316.384 325.938 316.581 325.938Z" fill="black"/>
<path d="M311.978 320.67C312.473 320.67 312.85 320.846 313.108 321.199C313.37 321.552 313.501 322.076 313.501 322.772V326.839H312.355V323.066C312.355 322.611 312.302 322.269 312.197 322.04C312.091 321.807 311.909 321.691 311.651 321.691C311.301 321.691 311.05 321.853 310.897 322.177C310.748 322.5 310.673 323.037 310.673 323.787V326.839H309.527V320.784H310.439L310.559 321.609H310.635C310.723 321.412 310.832 321.245 310.963 321.106C311.094 320.964 311.245 320.857 311.416 320.784C311.587 320.708 311.774 320.67 311.978 320.67Z" fill="black"/>
<path d="M308.402 323.798C308.402 324.249 308.36 324.666 308.276 325.048C308.193 325.43 308.063 325.763 307.889 326.047C307.718 326.331 307.494 326.553 307.217 326.713C306.944 326.87 306.617 326.948 306.234 326.948C305.871 326.948 305.554 326.87 305.285 326.713C305.015 326.557 304.791 326.339 304.613 326.058C304.438 325.774 304.307 325.441 304.22 325.059C304.133 324.673 304.089 324.253 304.089 323.798C304.089 323.161 304.163 322.61 304.313 322.144C304.466 321.674 304.702 321.312 305.022 321.057C305.343 320.799 305.752 320.67 306.251 320.67C306.699 320.67 307.083 320.79 307.403 321.03C307.727 321.27 307.974 321.623 308.145 322.089C308.316 322.551 308.402 323.121 308.402 323.798ZM305.252 323.809C305.252 324.282 305.286 324.679 305.355 324.999C305.428 325.319 305.537 325.561 305.683 325.725C305.832 325.885 306.022 325.965 306.251 325.965C306.48 325.965 306.666 325.885 306.808 325.725C306.953 325.565 307.059 325.325 307.124 325.005C307.194 324.684 307.228 324.282 307.228 323.798C307.228 323.325 307.194 322.93 307.124 322.613C307.059 322.293 306.953 322.055 306.808 321.898C306.666 321.738 306.478 321.658 306.245 321.658C305.896 321.658 305.643 321.836 305.487 322.193C305.33 322.546 305.252 323.085 305.252 323.809Z" fill="black"/>
<path d="M300.961 318.857C301.758 318.857 302.347 319.057 302.73 319.458C303.115 319.854 303.308 320.455 303.308 321.259C303.308 321.667 303.259 322.031 303.161 322.351C303.063 322.672 302.913 322.945 302.713 323.17C302.517 323.392 302.269 323.561 301.971 323.678C301.672 323.794 301.319 323.853 300.912 323.853H300.431V326.839H299.23V318.857H300.961ZM300.884 319.889H300.431V322.815H300.797C301.095 322.815 301.341 322.764 301.534 322.662C301.727 322.557 301.869 322.391 301.96 322.166C302.054 321.936 302.102 321.638 302.102 321.27C302.102 320.783 302.002 320.431 301.801 320.217C301.605 319.998 301.299 319.889 300.884 319.889Z" fill="black"/>
<circle cx="318.31" cy="249.429" r="6.14969" fill="#1E1E1E"/>
<path d="M376.456 250.301C376.456 250.752 376.414 251.169 376.331 251.551C376.247 251.934 376.118 252.267 375.943 252.55C375.772 252.834 375.548 253.056 375.271 253.217C374.998 253.373 374.671 253.451 374.289 253.451C373.925 253.451 373.608 253.373 373.339 253.217C373.069 253.06 372.846 252.842 372.667 252.561C372.492 252.278 372.361 251.944 372.274 251.562C372.187 251.176 372.143 250.756 372.143 250.301C372.143 249.664 372.218 249.113 372.367 248.647C372.52 248.177 372.756 247.815 373.077 247.56C373.397 247.302 373.806 247.173 374.305 247.173C374.753 247.173 375.137 247.293 375.457 247.533C375.781 247.773 376.028 248.126 376.2 248.592C376.371 249.055 376.456 249.624 376.456 250.301ZM373.306 250.312C373.306 250.785 373.341 251.182 373.41 251.502C373.482 251.823 373.592 252.065 373.737 252.228C373.886 252.389 374.076 252.469 374.305 252.469C374.534 252.469 374.72 252.389 374.862 252.228C375.008 252.068 375.113 251.828 375.179 251.508C375.248 251.187 375.282 250.785 375.282 250.301C375.282 249.828 375.248 249.433 375.179 249.116C375.113 248.796 375.008 248.558 374.862 248.401C374.72 248.241 374.533 248.161 374.3 248.161C373.95 248.161 373.697 248.339 373.541 248.696C373.384 249.049 373.306 249.588 373.306 250.312Z" fill="black"/>
<path d="M369.507 247.173C370.002 247.173 370.378 247.349 370.637 247.702C370.899 248.055 371.03 248.58 371.03 249.275V253.342H369.883V249.57C369.883 249.115 369.83 248.772 369.725 248.543C369.619 248.31 369.437 248.194 369.179 248.194C368.83 248.194 368.578 248.356 368.426 248.68C368.276 249.004 368.202 249.54 368.202 250.29V253.342H367.055V247.287H367.967L368.087 248.112H368.163C368.251 247.915 368.36 247.748 368.491 247.61C368.622 247.468 368.773 247.36 368.944 247.287C369.115 247.211 369.303 247.173 369.507 247.173Z" fill="black"/>
<path d="M364.025 247.173C364.6 247.173 365.024 247.353 365.297 247.713C365.57 248.074 365.706 248.601 365.706 249.297V253.342H364.855L364.674 252.507H364.647C364.538 252.711 364.416 252.884 364.281 253.025C364.147 253.167 363.992 253.273 363.817 253.342C363.646 253.415 363.446 253.451 363.217 253.451C362.893 253.451 362.629 253.366 362.425 253.195C362.221 253.02 362.072 252.793 361.977 252.512C361.883 252.232 361.835 251.934 361.835 251.617C361.835 251.002 362.008 250.53 362.354 250.203C362.704 249.875 363.199 249.697 363.839 249.668L364.56 249.63V249.302C364.56 248.894 364.502 248.594 364.385 248.401C364.269 248.208 364.078 248.112 363.812 248.112C363.641 248.112 363.457 248.145 363.26 248.21C363.067 248.272 362.855 248.37 362.622 248.505L362.289 247.648C362.54 247.491 362.811 247.373 363.102 247.293C363.397 247.213 363.704 247.173 364.025 247.173ZM364.565 250.427L364.085 250.454C363.717 250.476 363.444 250.58 363.266 250.765C363.088 250.951 362.998 251.22 362.998 251.573C362.998 251.897 363.055 252.137 363.168 252.294C363.284 252.45 363.446 252.529 363.653 252.529C363.934 252.529 364.156 252.394 364.32 252.125C364.483 251.852 364.565 251.48 364.565 251.011V250.427Z" fill="black"/>
<path d="M360.793 247.287V253.342H359.652V247.287H360.793ZM360.23 244.956C360.452 244.956 360.614 245.02 360.716 245.147C360.818 245.275 360.869 245.455 360.869 245.688C360.869 245.913 360.815 246.09 360.705 246.217C360.6 246.341 360.441 246.403 360.23 246.403C360.023 246.403 359.861 246.341 359.744 246.217C359.632 246.09 359.575 245.913 359.575 245.688C359.575 245.448 359.63 245.266 359.739 245.142C359.848 245.018 360.012 244.956 360.23 244.956Z" fill="black"/>
<path d="M358.287 253.342H357.14V244.847H358.287V253.342Z" fill="black"/>
<path d="M353.799 256.028C353.173 256.028 352.685 255.881 352.336 255.586C351.986 255.291 351.812 254.876 351.812 254.341C351.812 253.955 351.912 253.633 352.112 253.375C352.316 253.116 352.58 252.942 352.903 252.851C352.74 252.778 352.605 252.667 352.499 252.518C352.398 252.368 352.347 252.192 352.347 251.988C352.347 251.77 352.396 251.58 352.494 251.42C352.596 251.26 352.734 251.102 352.909 250.945C352.68 250.803 352.496 250.578 352.357 250.268C352.223 249.955 352.155 249.604 352.155 249.215C352.155 248.792 352.228 248.43 352.374 248.128C352.519 247.826 352.731 247.593 353.007 247.429C353.284 247.266 353.619 247.184 354.012 247.184C354.135 247.184 354.243 247.191 354.334 247.205C354.425 247.216 354.505 247.231 354.574 247.249C354.647 247.267 354.709 247.289 354.76 247.315H356.387V248.019L355.628 248.15C355.711 248.299 355.772 248.463 355.808 248.641C355.848 248.82 355.868 249.007 355.868 249.204C355.868 249.841 355.706 250.337 355.382 250.694C355.062 251.047 354.607 251.224 354.017 251.224C353.835 251.224 353.697 251.207 353.602 251.175C353.522 251.247 353.449 251.333 353.384 251.431C353.322 251.526 353.291 251.646 353.291 251.792C353.291 251.886 353.315 251.97 353.362 252.043C353.409 252.112 353.48 252.165 353.575 252.201C353.67 252.237 353.788 252.256 353.93 252.256H354.869C355.335 252.256 355.693 252.388 355.944 252.654C356.199 252.92 356.327 253.324 356.327 253.866C356.327 254.558 356.11 255.091 355.677 255.466C355.247 255.841 354.621 256.028 353.799 256.028ZM353.881 255.149C354.186 255.149 354.439 255.107 354.64 255.024C354.843 254.94 354.994 254.813 355.093 254.641C355.191 254.474 355.24 254.268 355.24 254.025C355.24 253.824 355.209 253.671 355.147 253.566C355.089 253.464 354.996 253.393 354.869 253.353C354.742 253.313 354.58 253.293 354.383 253.293H353.63C353.488 253.293 353.36 253.326 353.247 253.391C353.138 253.457 353.051 253.559 352.985 253.697C352.923 253.835 352.893 254.017 352.893 254.243C352.893 254.541 352.98 254.767 353.155 254.92C353.333 255.073 353.575 255.149 353.881 255.149ZM354.017 250.41C354.243 250.41 354.416 250.31 354.536 250.11C354.656 249.906 354.716 249.608 354.716 249.215C354.716 248.803 354.654 248.498 354.53 248.297C354.41 248.094 354.237 247.992 354.012 247.992C353.79 247.992 353.617 248.097 353.493 248.308C353.373 248.519 353.313 248.823 353.313 249.22C353.313 249.602 353.371 249.897 353.488 250.105C353.604 250.308 353.781 250.41 354.017 250.41Z" fill="black"/>
<path d="M349.371 247.184C349.804 247.184 350.166 247.3 350.458 247.533C350.749 247.762 350.967 248.081 351.113 248.488C351.258 248.896 351.331 249.364 351.331 249.892V250.596H348.448C348.456 251.236 348.561 251.715 348.765 252.032C348.973 252.345 349.287 252.501 349.71 252.501C349.946 252.501 350.174 252.469 350.392 252.403C350.61 252.334 350.842 252.223 351.085 252.07V253.053C350.86 253.187 350.621 253.287 350.37 253.353C350.119 253.419 349.85 253.451 349.562 253.451C349.031 253.451 348.6 253.322 348.268 253.064C347.937 252.802 347.695 252.438 347.542 251.972C347.393 251.506 347.318 250.965 347.318 250.35C347.318 249.67 347.395 249.095 347.548 248.625C347.701 248.155 347.93 247.799 348.236 247.555C348.541 247.307 348.92 247.184 349.371 247.184ZM349.388 248.101C349.107 248.101 348.887 248.232 348.727 248.494C348.567 248.756 348.478 249.169 348.459 249.733H350.267C350.267 249.42 350.234 249.142 350.168 248.898C350.103 248.65 350.004 248.456 349.873 248.314C349.746 248.172 349.584 248.101 349.388 248.101Z" fill="black"/>
<path d="M344.676 247.173C345.171 247.173 345.548 247.349 345.806 247.702C346.068 248.055 346.199 248.58 346.199 249.275V253.342H345.053V249.57C345.053 249.115 345 248.772 344.894 248.543C344.789 248.31 344.607 248.194 344.348 248.194C343.999 248.194 343.748 248.356 343.595 248.68C343.446 249.004 343.371 249.54 343.371 250.29V253.342H342.225V247.287H343.136L343.256 248.112H343.333C343.42 247.915 343.529 247.748 343.66 247.61C343.792 247.468 343.943 247.36 344.114 247.287C344.285 247.211 344.472 247.173 344.676 247.173Z" fill="black"/>
<path d="M341.1 250.301C341.1 250.752 341.058 251.169 340.975 251.551C340.891 251.934 340.762 252.267 340.587 252.55C340.416 252.834 340.192 253.056 339.915 253.217C339.642 253.373 339.315 253.451 338.933 253.451C338.569 253.451 338.252 253.373 337.983 253.217C337.713 253.06 337.49 252.842 337.311 252.561C337.137 252.278 337.005 251.944 336.918 251.562C336.831 251.176 336.787 250.756 336.787 250.301C336.787 249.664 336.862 249.113 337.011 248.647C337.164 248.177 337.4 247.815 337.721 247.56C338.041 247.302 338.45 247.173 338.949 247.173C339.397 247.173 339.781 247.293 340.101 247.533C340.425 247.773 340.673 248.126 340.844 248.592C341.015 249.055 341.1 249.624 341.1 250.301ZM337.95 250.312C337.95 250.785 337.985 251.182 338.054 251.502C338.127 251.823 338.236 252.065 338.381 252.228C338.531 252.389 338.72 252.469 338.949 252.469C339.178 252.469 339.364 252.389 339.506 252.228C339.652 252.068 339.757 251.828 339.823 251.508C339.892 251.187 339.926 250.785 339.926 250.301C339.926 249.828 339.892 249.433 339.823 249.116C339.757 248.796 339.652 248.558 339.506 248.401C339.364 248.241 339.177 248.161 338.944 248.161C338.594 248.161 338.341 248.339 338.185 248.696C338.028 249.049 337.95 249.588 337.95 250.312Z" fill="black"/>
<path d="M334.526 246.294C334.25 246.294 334.011 246.374 333.811 246.534C333.611 246.69 333.445 246.911 333.314 247.195C333.187 247.475 333.092 247.801 333.03 248.172C332.969 248.543 332.938 248.94 332.938 249.362C332.938 249.999 333.003 250.545 333.134 251C333.265 251.451 333.455 251.797 333.702 252.037C333.95 252.274 334.246 252.392 334.592 252.392C334.829 252.392 335.052 252.358 335.263 252.288C335.475 252.216 335.677 252.13 335.869 252.032V253.107C335.666 253.22 335.444 253.306 335.203 253.364C334.967 253.422 334.708 253.451 334.428 253.451C333.857 253.451 333.367 253.289 332.959 252.965C332.552 252.641 332.239 252.174 332.02 251.562C331.802 250.951 331.693 250.214 331.693 249.351C331.693 248.769 331.751 248.23 331.868 247.735C331.984 247.236 332.157 246.8 332.386 246.425C332.619 246.05 332.909 245.759 333.254 245.551C333.6 245.344 334 245.24 334.455 245.24C334.747 245.24 335.027 245.276 335.296 245.349C335.566 245.422 335.826 245.533 336.077 245.682L335.7 246.681C335.518 246.561 335.331 246.467 335.138 246.397C334.945 246.328 334.741 246.294 334.526 246.294Z" fill="black"/>
<path fill-rule="evenodd" clip-rule="evenodd" d="M3.09481 438.4H2V437.3H3.09481V438.4ZM7.47406 438.4H5.28443V437.3H7.47406V438.4ZM11.8533 438.4H9.66368V437.3H11.8533V438.4ZM16.2325 438.4H14.0429V437.3H16.2325V438.4ZM20.6118 438.4H18.4222V437.3H20.6118V438.4ZM24.991 438.4H22.8014V437.3H24.991V438.4ZM29.3703 438.4H27.1807V437.3H29.3703V438.4ZM33.7495 438.4H31.5599V437.3H33.7495V438.4ZM38.1288 438.4H35.9391V437.3H38.1288V438.4ZM42.508 438.4H40.3184V437.3H42.508V438.4ZM46.8873 438.4H44.6976V437.3H46.8873V438.4ZM51.2665 438.4H49.0769V437.3H51.2665V438.4ZM55.6457 438.4H53.4561V437.3H55.6457V438.4ZM60.025 438.4H57.8354V437.3H60.025V438.4ZM64.4042 438.4H62.2146V437.3H64.4042V438.4ZM68.7835 438.4H66.5939V437.3H68.7835V438.4ZM73.1627 438.4H70.9731V437.3H73.1627V438.4ZM77.542 438.4H75.3523V437.3H77.542V438.4ZM81.9212 438.4H79.7316V437.3H81.9212V438.4ZM86.3004 438.4H84.1108V437.3H86.3004V438.4ZM90.6797 438.4H88.4901V437.3H90.6797V438.4ZM95.0589 438.4H92.8693V437.3H95.0589V438.4ZM99.4381 438.4H97.2485V437.3H99.4381V438.4ZM103.817 438.4H101.628V437.3H103.817V438.4ZM108.197 438.4H106.007V437.3H108.197V438.4ZM112.576 438.4H110.386V437.3H112.576V438.4ZM116.955 438.4H114.765V437.3H116.955V438.4ZM121.334 438.4H119.145V437.3H121.334V438.4ZM125.714 438.4H123.524V437.3H125.714V438.4ZM130.093 438.4H127.903V437.3H130.093V438.4ZM134.472 438.4H132.282V437.3H134.472V438.4ZM138.851 438.4H136.662V437.3H138.851V438.4ZM143.231 438.4H141.041V437.3H143.231V438.4ZM147.61 438.4H145.42V437.3H147.61V438.4ZM151.989 438.4H149.799V437.3H151.989V438.4ZM156.368 438.4H154.179V437.3H156.368V438.4ZM160.748 438.4H158.558V437.3H160.748V438.4ZM165.127 438.4H162.937V437.3H165.127V438.4ZM169.506 438.4H167.316V437.3H169.506V438.4ZM173.885 438.4H171.696V437.3H173.885V438.4ZM178.265 438.4H176.075V437.3H178.265V438.4ZM182.644 438.4H180.454V437.3H182.644V438.4ZM187.023 438.4H184.833V437.3H187.023V438.4ZM191.402 438.4H189.213V437.3H191.402V438.4ZM195.782 438.4H193.592V437.3H195.782V438.4ZM200.161 438.4H197.971V437.3H200.161V438.4ZM204.54 438.4H202.35V437.3H204.54V438.4ZM208.919 438.4H206.73V437.3H208.919V438.4ZM213.299 438.4H211.109V437.3H213.299V438.4ZM217.678 438.4H215.488V437.3H217.678V438.4ZM222.057 438.4H219.867V437.3H222.057V438.4ZM226.436 438.4H224.247V437.3H226.436V438.4ZM230.816 438.4H228.626V437.3H230.816V438.4ZM235.195 438.4H233.005V437.3H235.195V438.4ZM239.574 438.4H237.384V437.3H239.574V438.4ZM243.953 438.4H241.764V437.3H243.953V438.4ZM248.333 438.4H246.143V437.3H248.333V438.4ZM252.712 438.4H250.522V437.3H252.712V438.4ZM257.091 438.4H254.901V437.3H257.091V438.4ZM261.47 438.4H259.281V437.3H261.47V438.4ZM265.85 438.4H263.66V437.3H265.85V438.4ZM270.229 438.4H268.039V437.3H270.229V438.4ZM274.608 438.4H272.418V437.3H274.608V438.4ZM278.987 438.4H276.798V437.3H278.987V438.4ZM283.367 438.4H281.177V437.3H283.367V438.4ZM287.746 438.4H285.556V437.3H287.746V438.4ZM292.125 438.4H289.935V437.3H292.125V438.4ZM296.504 438.4H294.315V437.3H296.504V438.4ZM300.884 438.4H298.694V437.3H300.884V438.4ZM305.263 438.4H303.073V437.3H305.263V438.4ZM309.642 438.4H307.452V437.3H309.642V438.4ZM314.021 438.4H311.832V437.3H314.021V438.4ZM318.401 438.4H316.211V437.3H318.401V438.4ZM322.78 438.4H320.59V437.3H322.78V438.4ZM327.159 438.4H324.97V437.3H327.159V438.4ZM331.538 438.4H329.349V437.3H331.538V438.4ZM335.918 438.4H333.728V437.3H335.918V438.4ZM340.297 438.4H338.107V437.3H340.297V438.4ZM344.676 438.4H342.487V437.3H344.676V438.4ZM349.055 438.4H346.866V437.3H349.055V438.4ZM353.435 438.4H351.245V437.3H353.435V438.4ZM357.814 438.4H355.624V437.3H357.814V438.4ZM362.193 438.4H360.004V437.3H362.193V438.4ZM366.572 438.4H364.383V437.3H366.572V438.4ZM370.952 438.4H368.762V437.3H370.952V438.4ZM375.331 438.4H373.141V437.3H375.331V438.4ZM379.71 438.4H377.521V437.3H379.71V438.4ZM384.089 438.4H381.9V437.3H384.089V438.4ZM388.469 438.4H386.279V437.3H388.469V438.4ZM392.848 438.4H390.658V437.3H392.848V438.4ZM397.227 438.4H395.038V437.3H397.227V438.4ZM401.606 438.4H399.417V437.3H401.606V438.4ZM405.986 438.4H403.796V437.3H405.986V438.4ZM410.365 438.4H408.175V437.3H410.365V438.4ZM414.744 438.4H412.555V437.3H414.744V438.4ZM419.123 438.4H416.934V437.3H419.123V438.4ZM423.503 438.4H421.313V437.3H423.503V438.4ZM427.882 438.4H425.692V437.3H427.882V438.4ZM432.261 438.4H430.072V437.3H432.261V438.4ZM436.64 438.4H434.451V437.3H436.64V438.4ZM441.02 438.4H438.83V437.3H441.02V438.4ZM445.399 438.4H443.209V437.3H445.399V438.4ZM449.778 438.4H447.589V437.3H449.778V438.4ZM454.157 438.4H451.968V437.3H454.157V438.4ZM458.537 438.4H456.347V437.3H458.537V438.4ZM462.916 438.4H460.726V437.3H462.916V438.4ZM466.2 438.4H465.106V437.3H466.2V438.4Z" fill="#ABABAB"/>
<path fill-rule="evenodd" clip-rule="evenodd" d="M3.09481 464.8H2V463.7H3.09481V464.8ZM7.47406 464.8H5.28443V463.7H7.47406V464.8ZM11.8533 464.8H9.66368V463.7H11.8533V464.8ZM16.2325 464.8H14.0429V463.7H16.2325V464.8ZM20.6118 464.8H18.4222V463.7H20.6118V464.8ZM24.991 464.8H22.8014V463.7H24.991V464.8ZM29.3703 464.8H27.1807V463.7H29.3703V464.8ZM33.7495 464.8H31.5599V463.7H33.7495V464.8ZM38.1288 464.8H35.9391V463.7H38.1288V464.8ZM42.508 464.8H40.3184V463.7H42.508V464.8ZM46.8873 464.8H44.6976V463.7H46.8873V464.8ZM51.2665 464.8H49.0769V463.7H51.2665V464.8ZM55.6457 464.8H53.4561V463.7H55.6457V464.8ZM60.025 464.8H57.8354V463.7H60.025V464.8ZM64.4042 464.8H62.2146V463.7H64.4042V464.8ZM68.7835 464.8H66.5939V463.7H68.7835V464.8ZM73.1627 464.8H70.9731V463.7H73.1627V464.8ZM77.542 464.8H75.3523V463.7H77.542V464.8ZM81.9212 464.8H79.7316V463.7H81.9212V464.8ZM86.3004 464.8H84.1108V463.7H86.3004V464.8ZM90.6797 464.8H88.4901V463.7H90.6797V464.8ZM95.0589 464.8H92.8693V463.7H95.0589V464.8ZM99.4381 464.8H97.2485V463.7H99.4381V464.8ZM103.817 464.8H101.628V463.7H103.817V464.8ZM108.197 464.8H106.007V463.7H108.197V464.8ZM112.576 464.8H110.386V463.7H112.576V464.8ZM116.955 464.8H114.765V463.7H116.955V464.8ZM121.334 464.8H119.145V463.7H121.334V464.8ZM125.714 464.8H123.524V463.7H125.714V464.8ZM130.093 464.8H127.903V463.7H130.093V464.8ZM134.472 464.8H132.282V463.7H134.472V464.8ZM138.851 464.8H136.662V463.7H138.851V464.8ZM143.231 464.8H141.041V463.7H143.231V464.8ZM147.61 464.8H145.42V463.7H147.61V464.8ZM151.989 464.8H149.799V463.7H151.989V464.8ZM156.368 464.8H154.179V463.7H156.368V464.8ZM160.748 464.8H158.558V463.7H160.748V464.8ZM165.127 464.8H162.937V463.7H165.127V464.8ZM169.506 464.8H167.316V463.7H169.506V464.8ZM173.885 464.8H171.696V463.7H173.885V464.8ZM178.265 464.8H176.075V463.7H178.265V464.8ZM182.644 464.8H180.454V463.7H182.644V464.8ZM187.023 464.8H184.833V463.7H187.023V464.8ZM191.402 464.8H189.213V463.7H191.402V464.8ZM195.782 464.8H193.592V463.7H195.782V464.8ZM200.161 464.8H197.971V463.7H200.161V464.8ZM204.54 464.8H202.35V463.7H204.54V464.8ZM208.919 464.8H206.73V463.7H208.919V464.8ZM213.299 464.8H211.109V463.7H213.299V464.8ZM217.678 464.8H215.488V463.7H217.678V464.8ZM222.057 464.8H219.867V463.7H222.057V464.8ZM226.436 464.8H224.247V463.7H226.436V464.8ZM230.816 464.8H228.626V463.7H230.816V464.8ZM235.195 464.8H233.005V463.7H235.195V464.8ZM239.574 464.8H237.384V463.7H239.574V464.8ZM243.953 464.8H241.764V463.7H243.953V464.8ZM248.333 464.8H246.143V463.7H248.333V464.8ZM252.712 464.8H250.522V463.7H252.712V464.8ZM257.091 464.8H254.901V463.7H257.091V464.8ZM261.47 464.8H259.281V463.7H261.47V464.8ZM265.85 464.8H263.66V463.7H265.85V464.8ZM270.229 464.8H268.039V463.7H270.229V464.8ZM274.608 464.8H272.418V463.7H274.608V464.8ZM278.987 464.8H276.798V463.7H278.987V464.8ZM283.367 464.8H281.177V463.7H283.367V464.8ZM287.746 464.8H285.556V463.7H287.746V464.8ZM292.125 464.8H289.935V463.7H292.125V464.8ZM296.504 464.8H294.315V463.7H296.504V464.8ZM300.884 464.8H298.694V463.7H300.884V464.8ZM305.263 464.8H303.073V463.7H305.263V464.8ZM309.642 464.8H307.452V463.7H309.642V464.8ZM314.021 464.8H311.832V463.7H314.021V464.8ZM318.401 464.8H316.211V463.7H318.401V464.8ZM322.78 464.8H320.59V463.7H322.78V464.8ZM327.159 464.8H324.97V463.7H327.159V464.8ZM331.538 464.8H329.349V463.7H331.538V464.8ZM335.918 464.8H333.728V463.7H335.918V464.8ZM340.297 464.8H338.107V463.7H340.297V464.8ZM344.676 464.8H342.487V463.7H344.676V464.8ZM349.055 464.8H346.866V463.7H349.055V464.8ZM353.435 464.8H351.245V463.7H353.435V464.8ZM357.814 464.8H355.624V463.7H357.814V464.8ZM362.193 464.8H360.004V463.7H362.193V464.8ZM366.572 464.8H364.383V463.7H366.572V464.8ZM370.952 464.8H368.762V463.7H370.952V464.8ZM375.331 464.8H373.141V463.7H375.331V464.8ZM379.71 464.8H377.521V463.7H379.71V464.8ZM384.089 464.8H381.9V463.7H384.089V464.8ZM388.469 464.8H386.279V463.7H388.469V464.8ZM392.848 464.8H390.658V463.7H392.848V464.8ZM397.227 464.8H395.038V463.7H397.227V464.8ZM401.606 464.8H399.417V463.7H401.606V464.8ZM405.986 464.8H403.796V463.7H405.986V464.8ZM410.365 464.8H408.175V463.7H410.365V464.8ZM414.744 464.8H412.555V463.7H414.744V464.8ZM419.123 464.8H416.934V463.7H419.123V464.8ZM423.503 464.8H421.313V463.7H423.503V464.8ZM427.882 464.8H425.692V463.7H427.882V464.8ZM432.261 464.8H430.072V463.7H432.261V464.8ZM436.64 464.8H434.451V463.7H436.64V464.8ZM441.02 464.8H438.83V463.7H441.02V464.8ZM445.399 464.8H443.209V463.7H445.399V464.8ZM449.778 464.8H447.589V463.7H449.778V464.8ZM454.157 464.8H451.968V463.7H454.157V464.8ZM458.537 464.8H456.347V463.7H458.537V464.8ZM462.916 464.8H460.726V463.7H462.916V464.8ZM466.2 464.8H465.106V463.7H466.2V464.8Z" fill="#ABABAB"/>
<path d="M36.8252 425.836C37.4933 425.836 37.9879 426.079 38.309 426.566C38.6353 427.048 38.7985 427.783 38.7985 428.772V434.521H37.6021V428.982C37.6021 428.236 37.5062 427.703 37.3146 427.382C37.1282 427.055 36.8562 426.892 36.4989 426.892C35.981 426.892 35.6106 427.136 35.3879 427.623C35.1652 428.109 35.0539 428.814 35.0539 429.736V434.521H33.873V428.967C33.873 428.459 33.8316 428.055 33.7487 427.755C33.6658 427.449 33.5415 427.229 33.3758 427.094C33.2152 426.96 33.0107 426.892 32.7621 426.892C32.3788 426.892 32.0836 427.024 31.8764 427.288C31.6692 427.553 31.5242 427.915 31.4414 428.376C31.3637 428.837 31.3248 429.363 31.3248 429.953V434.521H30.1284V425.991H31.084L31.2238 427.203H31.2937C31.4025 426.913 31.5423 426.667 31.7133 426.465C31.8842 426.263 32.0862 426.108 32.3192 425.999C32.5575 425.89 32.8242 425.836 33.1194 425.836C33.6115 425.836 33.9973 425.97 34.277 426.24C34.5618 426.504 34.7509 426.838 34.8441 427.242H34.9296C35.1264 426.765 35.3724 426.413 35.6676 426.185C35.9628 425.952 36.3487 425.836 36.8252 425.836Z" fill="black"/>
<path d="M28.4036 428.842C28.4036 429.754 28.3518 430.57 28.2482 431.289C28.1498 432.009 27.9918 432.62 27.7743 433.123C27.5568 433.625 27.2745 434.009 26.9275 434.273C26.5857 434.537 26.1739 434.669 25.6922 434.669C25.1173 434.669 24.6279 434.493 24.2239 434.141C23.8199 433.783 23.5092 433.182 23.2917 432.338C23.0793 431.489 22.9731 430.324 22.9731 428.842C22.9731 427.547 23.0716 426.468 23.2684 425.603C23.4704 424.738 23.7707 424.088 24.1695 423.653C24.5735 423.218 25.0811 423 25.6922 423C26.3138 423 26.8239 423.22 27.2227 423.66C27.6215 424.095 27.9167 424.745 28.1084 425.61C28.3052 426.475 28.4036 427.553 28.4036 428.842ZM24.2239 428.842C24.2239 429.883 24.2731 430.753 24.3715 431.453C24.4699 432.147 24.6279 432.67 24.8454 433.022C25.063 433.374 25.3452 433.55 25.6922 433.55C26.0393 433.55 26.3215 433.374 26.539 433.022C26.7566 432.665 26.9145 432.136 27.0129 431.437C27.1165 430.738 27.1683 429.873 27.1683 428.842C27.1683 427.812 27.1165 426.947 27.0129 426.247C26.9094 425.548 26.7488 425.02 26.5313 424.663C26.3189 424.305 26.0393 424.127 25.6922 424.127C25.3452 424.127 25.063 424.303 24.8454 424.655C24.6279 425.007 24.4699 425.533 24.3715 426.232C24.2731 426.926 24.2239 427.796 24.2239 428.842Z" fill="black"/>
<path d="M21.6292 428.842C21.6292 429.754 21.5774 430.57 21.4738 431.289C21.3754 432.009 21.2174 432.62 20.9999 433.123C20.7824 433.625 20.5001 434.009 20.1531 434.273C19.8112 434.537 19.3995 434.669 18.9178 434.669C18.3429 434.669 17.8535 434.493 17.4495 434.141C17.0455 433.783 16.7348 433.182 16.5173 432.338C16.3049 431.489 16.1987 430.324 16.1987 428.842C16.1987 427.547 16.2971 426.468 16.4939 425.603C16.6959 424.738 16.9963 424.088 17.3951 423.653C17.7991 423.218 18.3067 423 18.9178 423C19.5393 423 20.0495 423.22 20.4483 423.66C20.8471 424.095 21.1423 424.745 21.3339 425.61C21.5308 426.475 21.6292 427.553 21.6292 428.842ZM17.4495 428.842C17.4495 429.883 17.4987 430.753 17.5971 431.453C17.6955 432.147 17.8535 432.67 18.071 433.022C18.2886 433.374 18.5708 433.55 18.9178 433.55C19.2648 433.55 19.5471 433.374 19.7646 433.022C19.9822 432.665 20.1401 432.136 20.2385 431.437C20.3421 430.738 20.3939 429.873 20.3939 428.842C20.3939 427.812 20.3421 426.947 20.2385 426.247C20.135 425.548 19.9744 425.02 19.7569 424.663C19.5445 424.305 19.2648 424.127 18.9178 424.127C18.5708 424.127 18.2886 424.303 18.071 424.655C17.8535 425.007 17.6955 425.533 17.5971 426.232C17.4987 426.926 17.4495 427.796 17.4495 428.842Z" fill="black"/>
<path d="M14.8547 428.842C14.8547 429.754 14.803 430.57 14.6994 431.289C14.601 432.009 14.443 432.62 14.2255 433.123C14.0079 433.625 13.7257 434.009 13.3787 434.273C13.0368 434.537 12.6251 434.669 12.1434 434.669C11.5685 434.669 11.0791 434.493 10.6751 434.141C10.2711 433.783 9.96037 433.182 9.74284 432.338C9.53049 431.489 9.42432 430.324 9.42432 428.842C9.42432 427.547 9.52272 426.468 9.71953 425.603C9.92152 424.738 10.2219 424.088 10.6207 423.653C11.0247 423.218 11.5323 423 12.1434 423C12.7649 423 13.2751 423.22 13.6739 423.66C14.0727 424.095 14.3679 424.745 14.5595 425.61C14.7563 426.475 14.8547 427.553 14.8547 428.842ZM10.6751 428.842C10.6751 429.883 10.7243 430.753 10.8227 431.453C10.9211 432.147 11.0791 432.67 11.2966 433.022C11.5141 433.374 11.7964 433.55 12.1434 433.55C12.4904 433.55 12.7727 433.374 12.9902 433.022C13.2077 432.665 13.3657 432.136 13.4641 431.437C13.5677 430.738 13.6195 429.873 13.6195 428.842C13.6195 427.812 13.5677 426.947 13.4641 426.247C13.3605 425.548 13.2 425.02 12.9825 424.663C12.7701 424.305 12.4904 424.127 12.1434 424.127C11.7964 424.127 11.5141 424.303 11.2966 424.655C11.0791 425.007 10.9211 425.533 10.8227 426.232C10.7243 426.926 10.6751 427.796 10.6751 428.842Z" fill="black"/>
<path d="M6.57319 434.521H5.34571V426.721C5.34571 426.493 5.3483 426.266 5.35347 426.038C5.35865 425.805 5.36642 425.569 5.37678 425.331C5.38714 425.092 5.3975 424.854 5.40786 424.616C5.34053 424.714 5.24989 424.826 5.13595 424.95C5.022 425.074 4.87957 425.219 4.70866 425.385L3.69871 426.364L2.99951 425.603L5.51662 423.163H6.57319V434.521Z" fill="black"/>
<path d="M27.4044 452.562C28.0081 452.562 28.455 452.782 28.7451 453.222C29.04 453.657 29.1874 454.322 29.1874 455.216V460.41H28.1064V455.405C28.1064 454.731 28.0198 454.249 27.8466 453.959C27.6782 453.664 27.4325 453.517 27.1096 453.517C26.6416 453.517 26.307 453.737 26.1058 454.177C25.9046 454.617 25.8039 455.253 25.8039 456.086V460.41H24.737V455.391C24.737 454.932 24.6995 454.567 24.6246 454.296C24.5498 454.02 24.4375 453.821 24.2877 453.699C24.1426 453.578 23.9578 453.517 23.7332 453.517C23.3869 453.517 23.1201 453.636 22.9329 453.875C22.7457 454.113 22.6147 454.441 22.5398 454.858C22.4696 455.274 22.4345 455.749 22.4345 456.283V460.41H21.3535V452.703H22.2169L22.3433 453.798H22.4065C22.5047 453.536 22.6311 453.313 22.7855 453.131C22.9399 452.948 23.1225 452.808 23.333 452.71C23.5483 452.611 23.7893 452.562 24.0561 452.562C24.5006 452.562 24.8493 452.684 25.102 452.927C25.3594 453.166 25.5302 453.468 25.6144 453.833H25.6916C25.8695 453.402 26.0917 453.084 26.3585 452.878C26.6252 452.667 26.9739 452.562 27.4044 452.562Z" fill="black"/>
<path d="M19.7954 455.279C19.7954 456.102 19.7486 456.839 19.655 457.49C19.5661 458.14 19.4233 458.693 19.2268 459.147C19.0302 459.6 18.7752 459.947 18.4616 460.185C18.1528 460.424 17.7807 460.543 17.3455 460.543C16.8261 460.543 16.3838 460.384 16.0188 460.066C15.6538 459.743 15.373 459.2 15.1765 458.438C14.9846 457.67 14.8887 456.617 14.8887 455.279C14.8887 454.109 14.9776 453.133 15.1554 452.352C15.3379 451.57 15.6094 450.983 15.9697 450.59C16.3347 450.197 16.7933 450 17.3455 450C17.9071 450 18.3681 450.199 18.7284 450.597C19.0887 450.99 19.3555 451.577 19.5286 452.359C19.7065 453.14 19.7954 454.113 19.7954 455.279ZM16.0188 455.279C16.0188 456.219 16.0633 457.006 16.1522 457.637C16.2411 458.264 16.3838 458.737 16.5804 459.055C16.7769 459.373 17.032 459.533 17.3455 459.533C17.6591 459.533 17.9141 459.373 18.1107 459.055C18.3072 458.732 18.4499 458.255 18.5389 457.623C18.6325 456.992 18.6793 456.21 18.6793 455.279C18.6793 454.347 18.6325 453.566 18.5389 452.934C18.4453 452.302 18.3002 451.825 18.1036 451.502C17.9118 451.179 17.6591 451.018 17.3455 451.018C17.032 451.018 16.7769 451.177 16.5804 451.495C16.3838 451.813 16.2411 452.288 16.1522 452.92C16.0633 453.547 16.0188 454.333 16.0188 455.279Z" fill="black"/>
<path d="M13.6743 455.279C13.6743 456.102 13.6275 456.839 13.5339 457.49C13.445 458.14 13.3022 458.693 13.1057 459.147C12.9091 459.6 12.6541 459.947 12.3406 460.185C12.0317 460.424 11.6597 460.543 11.2244 460.543C10.705 460.543 10.2628 460.384 9.89773 460.066C9.53271 459.743 9.25193 459.2 9.05538 458.438C8.86351 457.67 8.76758 456.617 8.76758 455.279C8.76758 454.109 8.85649 453.133 9.03432 452.352C9.21683 451.57 9.48826 450.983 9.8486 450.59C10.2136 450.197 10.6722 450 11.2244 450C11.786 450 12.247 450.199 12.6073 450.597C12.9676 450.99 13.2344 451.577 13.4075 452.359C13.5854 453.14 13.6743 454.113 13.6743 455.279ZM9.89773 455.279C9.89773 456.219 9.94219 457.006 10.0311 457.637C10.12 458.264 10.2628 458.737 10.4593 459.055C10.6558 459.373 10.9109 459.533 11.2244 459.533C11.538 459.533 11.793 459.373 11.9896 459.055C12.1861 458.732 12.3289 458.255 12.4178 457.623C12.5114 456.992 12.5582 456.21 12.5582 455.279C12.5582 454.347 12.5114 453.566 12.4178 452.934C12.3242 452.302 12.1791 451.825 11.9826 451.502C11.7907 451.179 11.538 451.018 11.2244 451.018C10.9109 451.018 10.6558 451.177 10.4593 451.495C10.2628 451.813 10.12 452.288 10.0311 452.92C9.94219 453.547 9.89773 454.333 9.89773 455.279Z" fill="black"/>
<path d="M5.03985 454.121C5.56398 454.121 6.0109 454.247 6.38059 454.5C6.75029 454.752 7.03342 455.103 7.22997 455.553C7.42651 456.002 7.52479 456.524 7.52479 457.118C7.52479 457.796 7.41247 458.393 7.18785 458.908C6.9679 459.423 6.64266 459.825 6.21212 460.115C5.78159 460.405 5.2481 460.55 4.61166 460.55C4.22324 460.55 3.8746 460.513 3.56574 460.438C3.25688 460.368 2.98545 460.263 2.75146 460.122V459.013C3.01353 459.186 3.29665 459.324 3.60084 459.427C3.9097 459.53 4.21856 459.582 4.52742 459.582C4.95328 459.582 5.30192 459.472 5.57334 459.252C5.84945 459.027 6.05535 458.732 6.19107 458.367C6.32678 457.998 6.39463 457.593 6.39463 457.153C6.39463 456.474 6.24488 455.957 5.94538 455.602C5.65056 455.246 5.2247 455.068 4.66781 455.068C4.43383 455.068 4.20218 455.092 3.97287 455.138C3.74357 455.181 3.51426 455.237 3.28495 455.307L2.84272 454.879L3.15158 450.147H6.97726V451.158H4.07817L3.86758 454.261C4.06413 454.214 4.26068 454.179 4.45723 454.156C4.65845 454.132 4.85266 454.121 5.03985 454.121Z" fill="black"/>
<path d="M3.49951 464.5L43.4995 463L50.9995 459.5L54.4995 457.5L57.9995 457L60.9995 459.5L62.4995 458L65.4995 459.5L68.4995 459L73.9995 462.5L97.4995 461L102.5 461.5L110 459L119 448.5L125 442.5H127L129.5 440L133.5 437L135.5 433L140 432.5L141 432L142 433L143.5 435.5L145 437.5L150.5 435L151.5 432L153.5 431L155.5 432L157 434L160 435L161 436.5H166L167 437L170 435L182 448H184.5L193.5 460L203 461L209.5 460L212.5 459L214 460.5H221.5L227.5 452.5L230.5 447L233.5 443L235.5 440.5L238 439.5L239.5 439L245.5 444L254 434H256.5L264 425L267.5 427.5H270.5L275.5 431L278.5 432L283.5 437L288 440.5L294.5 443.5L297.5 444L303 448.5H304.5L308.5 452.5L310.5 455.5L311.5 456.5H324.5L329.5 455L333 454.5L340 459H348.5L352 462L360 461.5L362.5 463H368L370 461.5L372 462.5L374.5 461L377 462.5L378.5 462L382.5 463L385.5 461L387 462.5L391.5 461.5L393.5 463H403.5L405.5 461.5L413 463L428 463.5L430 463L465.5 464.5" stroke="black" stroke-width="2" stroke-linecap="round"/>
</svg>
